<?xml version="1.0" encoding="UTF-8" standalone="no"?>
<svg
   xmlns:dc="http://purl.org/dc/elements/1.1/"
   xmlns:cc="http://creativecommons.org/ns#"
   xmlns:rdf="http://www.w3.org/1999/02/22-rdf-syntax-ns#"
   xmlns:svg="http://www.w3.org/2000/svg"
   xmlns="http://www.w3.org/2000/svg"
   id="SVGRoot"
   version="1.1"
   viewBox="0 0 512 512"
   height="512px"
   width="512px">
  <defs
     id="defs4920" />
  <metadata
     id="metadata4923">
    <rdf:RDF>
      <cc:Work
         rdf:about="">
        <dc:format>image/svg+xml</dc:format>
        <dc:type
           rdf:resource="http://purl.org/dc/dcmitype/StillImage" />
        <dc:title></dc:title>
      </cc:Work>
    </rdf:RDF>
  </metadata>
  <g
     id="layer1">
    <g
       id="g4878"
       transform="matrix(0.18182863,0,0,-0.18182863,-143.54196,609.8096)">
      <g
         transform="scale(0.192045)"
         id="g3748">
        <path
           id="path3750"
           style="fill:#ab6bd5;fill-opacity:1;fill-rule:nonzero;stroke:none"
           d="m 10258,2939.89 c -3336.85,0 -6041.93,297.74 -6041.93,665 0,131.79 348.28,254.63 949.27,357.94 322.96,-237.97 722.14,-369.81 1138.61,-369.81 h 7846.85 c 421.4,0 825.1,135.02 1150,378.24 631.4,-105.03 999.2,-230.99 999.2,-366.37 0,-367.26 -2705.1,-665 -6042,-665" />
      </g>
      <g
         transform="scale(0.21812)"
         id="g3752">
        <path
           id="path3754"
           style="fill:#b5e5fb;fill-opacity:1;fill-rule:nonzero;stroke:none"
           d="m 16297.1,4499.08 c 2.5,-2.75 2.9,-6.24 0.9,-8.53 -35.3,-40.94 -357.5,-386.16 -979.9,-103.98 -783.6,355.26 -727.7,874.89 -1268.4,1322.67 -496.7,411.33 -1332,190.72 -1668.8,76.51 -13.1,245.51 27.2,407.58 27.2,407.58 0,0 1236.5,806.16 2243.5,126.72 681.7,-460.07 150,-1127.87 709.2,-1516.55 248.4,-172.52 515.8,-219.47 733.9,-219.06 84.7,0.05 155.6,-34.79 202.4,-85.36" />
      </g>
      <g
         transform="scale(0.218289)"
         id="g3756">
        <path
           id="path3758"
           style="fill:#390075;fill-opacity:1;fill-rule:nonzero;stroke:none"
           d="m 16276,4487.77 v -0.05 0.05 M 13264,5954.9 c 278.7,0 562.9,-59.59 782.2,-241.19 220.3,-182.42 342.6,-377.48 460.9,-566.13 175.5,-279.86 341.2,-544.14 803.9,-753.91 597.6,-270.92 914,43.2 962.2,97.03 -48.5,50.76 -116.1,78.66 -190.8,78.66 -0.6,0 -2.1,0 -3.1,0 -278,0 -525.9,74.35 -737,220.94 -269.9,187.64 -289.5,435.89 -310.1,698.75 -22.3,284.35 -45.4,578.37 -398.4,816.54 -960.4,648.08 -2147.9,-75.77 -2225.1,-124.29 -6,-26.89 -36.1,-173.85 -26.6,-384.21 192.8,64.36 533,157.81 881.9,157.81 m 2501.4,-1693.07 c -130.4,0 -285,29.68 -463.9,110.81 -469,212.66 -636.6,479.83 -814,762.66 -117.3,187.1 -238.6,380.55 -456.1,560.64 -491.8,407.35 -1322.1,187.73 -1656.3,74.44 l -14.4,-4.9 -0.8,15.21 c -13.1,244.17 27,408.99 27.4,410.64 l 1.1,4.36 3.8,2.47 c 3.2,2.06 315.5,203.77 746.9,319.44 398.8,106.92 984.2,160.29 1507.6,-192.86 362.2,-244.45 385.8,-544.1 408.5,-833.85 20.2,-257.28 39.3,-500.26 300.3,-681.62 207.1,-143.85 450.7,-216.83 723.8,-216.83 1,0 1.4,-0.09 3.1,0 82.6,0 157.4,-31.6 210.5,-88.96 6.6,-7.1 7.1,-17.18 1.2,-23.96 -25.2,-29.32 -200.3,-217.69 -528.7,-217.69" />
      </g>
      <g
         transform="scale(0.218119)"
         id="g3760">
        <path
           id="path3762"
           style="fill:#39d5ff;fill-opacity:1;fill-rule:nonzero;stroke:none"
           d="m 16298.1,4490.62 c -35.2,-40.99 -357.6,-386.16 -979.9,-104.02 -127.3,57.72 -232.4,119.75 -321.4,185.12 -459.8,337.07 -494.1,762.48 -947,1137.55 -496.7,411.38 -1332,190.77 -1668.8,76.56 -10.5,195.45 13,338.12 23.1,387.96 2.5,12.79 4.1,19.57 4.1,19.57 0,0 1236.5,806.17 2243.4,126.72 681.8,-460.02 150,-1127.82 709.3,-1516.55 248.4,-172.53 515.8,-219.47 734,-219.02 84.7,-0.09 155.5,-34.84 202.3,-85.5 2.5,-2.66 2.8,-6.1 0.9,-8.39" />
      </g>
      <g
         transform="scale(0.218288)"
         id="g3764">
        <path
           id="path3766"
           style="fill:#102770;fill-opacity:1;fill-rule:nonzero;stroke:none"
           d="m 16285.5,4487.14 h 0.2 -0.2 m -3021.4,1467.78 c 278.6,0 562.8,-59.55 782.1,-241.19 220.3,-182.42 342.6,-377.39 460.9,-566 128.3,-204.5 249.4,-397.59 484.9,-570.25 93.6,-68.76 198,-128.87 319.1,-183.75 597.4,-270.88 913.7,42.88 962.1,96.98 -48.4,50.72 -116,78.61 -190.8,78.7 -278.3,-0.59 -528.2,73.81 -740,220.95 -270,187.6 -289.5,435.89 -310.1,698.76 -22.4,284.3 -45.5,578.31 -398.5,816.53 -960.2,647.95 -2147.4,-75.54 -2225,-124.28 -0.7,-3.21 -1.7,-8.07 -3,-14.57 -10,-49.71 -32.1,-183.29 -23.6,-369.65 192.8,64.32 533,157.77 881.9,157.77 m 2501.5,-1693.08 c -130.5,0 -285,29.69 -464.1,110.86 -122.5,55.57 -228.3,116.45 -323.1,186.18 -239.1,175.27 -361.4,370.2 -490.8,576.58 -117.4,187.04 -238.7,380.46 -456.1,560.54 -491.8,407.3 -1322.2,187.73 -1656.4,74.4 -3.4,-1.1 -7.2,-0.65 -10.2,1.37 -2.9,2.01 -4.8,5.36 -5,8.93 -10.5,196.94 12.8,338.78 23.3,390.63 2.5,12.97 4.1,19.88 4.1,19.88 0.7,2.89 2.5,5.41 5,7.01 3.1,2.02 315.4,203.72 746.8,319.4 398.9,106.97 984.2,160.34 1507.6,-192.82 362.3,-244.45 385.8,-544.1 408.6,-833.9 20.2,-257.23 39.3,-500.21 300.3,-681.57 207.1,-143.89 450.6,-216.83 723.8,-216.83 0.9,0 1.9,0 3,0 82.7,-0.09 157.5,-31.74 210.6,-89.14 6.4,-6.83 7,-16.77 1.5,-23.55 l -0.3,-0.18 c -25.2,-29.37 -200.3,-217.79 -528.6,-217.79" />
      </g>
      <g
         transform="scale(0.195004)"
         id="g3768">
        <path
           id="path3770"
           style="fill:#3995d5;fill-opacity:1;fill-rule:nonzero;stroke:none"
           d="m 16300,5806.25 c -134.7,214.82 -274.8,436.81 -528.9,647.27 -27.1,22.46 -55.1,43.33 -83.7,62.71 -247,167.34 -547,223.95 -839.9,223.95 -110.6,0 -220.3,-8.05 -325.6,-21.28 6.2,29.9 11.1,59.54 14.5,89.13 0,0.05 0,0.05 0,0.05 0,0.35 0.1,0.72 0.1,1.02 0,0.16 0,0.31 0,0.46 0.1,0.21 0.1,0.47 0.1,0.67 7.9,68.67 8.6,136.31 3.8,201.69 127.9,14.05 265.9,23.59 404.8,23.59 382.7,0 771.1,-72.77 968.3,-325.02 245.6,-314.25 246.8,-572.96 386.5,-904.24" />
      </g>
      <g
         transform="scale(0.219263)"
         id="g3772">
        <path
           id="path3774"
           style="fill:#390075;fill-opacity:1;fill-rule:nonzero;stroke:none"
           d="m 16154,4518.01 -0.1,-0.14 0.1,0.14 m 0.9,-95.23 0.2,-0.27 -0.2,0.22 v 0.05 m -2950.1,1571.68 c 290.8,0 589.3,-62.71 821.4,-254.95 227.5,-188.4 352.2,-387.21 472.8,-579.49 169.3,-269.86 329.1,-524.75 771.5,-725.34 443.2,-200.94 714.3,-58.92 826.5,29.88 -25.9,11.85 -55.1,18.06 -86,18.06 -1.4,0.68 -2.2,0.04 -3.2,0 -290.4,0 -550,77.98 -771.5,231.87 -294.6,204.77 -316.2,479.42 -337.1,744.99 -22,279.67 -42.7,543.82 -367.6,763.06 -868.2,585.83 -1936.1,-1.41 -2118.5,-110.19 -7.9,-43.51 -20.7,-132.17 -21.3,-250.66 202.4,61.62 503.3,132.77 813,132.77 m 2490.4,-1818.14 c -138.4,0 -301.4,31.33 -489.1,116.43 -485.1,219.92 -665.1,506.93 -839.2,784.45 -114,181.84 -231.9,369.83 -440.1,542.27 -463.9,384.2 -1263.2,171.53 -1585.3,62.35 l -97.4,-32.98 -5.5,102.62 c -13.6,252.98 27.5,421.37 29.2,428.44 l 7.4,29.73 25.7,16.69 c 13,8.49 323,208.61 762.6,326.51 588.7,157.8 1126.5,88.25 1555.3,-201.08 387.2,-261.29 413,-590.03 435.8,-880.04 19.7,-250.39 36.7,-466.61 270.6,-629.25 194.9,-135.32 424.6,-203.96 682.7,-203.96 1,0 2.3,0.1 2.9,0 99.7,0 193.8,-39.99 258.4,-109.77 29.6,-31.79 30.8,-80.18 2.8,-112.52 -27.6,-32.11 -220.4,-239.85 -576.8,-239.89" />
      </g>
      <g
         transform="scale(0.219038)"
         id="g3776">
        <path
           id="path3778"
           style="fill:#f694ab;fill-opacity:1;fill-rule:nonzero;stroke:none"
           d="m 16154.4,4059.02 c -466.9,-387.47 -1458.3,-149.38 -2205,480.01 -434.1,365.83 -1039.3,460.38 -1420.3,480.83 -140.5,274.93 -188.9,537.21 -200.1,741.65 335.4,113.73 1167.2,333.41 1661.8,-76.2 538.5,-445.9 482.8,-963.34 1263.1,-1317.12 586.8,-266.03 905.7,27.9 967.8,94.6 5.8,6.25 18.9,3.97 25,-4.29 39,-53.19 53.3,-118.89 33.3,-178.88 -24.7,-75.24 -66.9,-150.02 -125.6,-220.6" />
      </g>
      <g
         transform="scale(0.219193)"
         id="g3780">
        <path
           id="path3782"
           style="fill:#390075;fill-opacity:1;fill-rule:nonzero;stroke:none"
           d="m 12527.4,5027.39 c 415.1,-22.95 995.7,-125.69 1419.5,-482.77 756.3,-637.52 1737.4,-852.81 2187.9,-480.31 56.9,68.62 98.2,141.25 122.8,215.89 18.2,54.7 6.6,116.06 -31.7,168.34 -2,2.87 -6.4,3.65 -7.6,2.97 -59,-63.33 -384.6,-366.8 -979.9,-96.9 -467.1,211.77 -634,477.84 -810.6,759.51 -116.9,186.32 -237.7,378.98 -454.2,558.32 -485.9,402.29 -1303.3,190.47 -1641.3,76.92 15,-253.11 80.6,-495.87 195.1,-721.97 m 3010.7,-1167.96 c -486.7,0 -1097.3,238.78 -1606.1,667.58 -421.1,354.94 -1000.5,455.76 -1412.4,477.8 l -6.6,0.36 -3,5.89 c -119.2,233.17 -186.9,484.09 -201.1,745.78 l -0.5,8.71 8.3,2.79 c 336.4,114.05 1172.8,334.81 1671.5,-78.2 219.4,-181.67 341.3,-375.92 459.1,-563.8 174.7,-278.65 339.8,-541.89 800.6,-750.79 580.9,-263.43 896.5,30.34 953.9,91.92 4.6,5.02 11.7,7.58 19.4,7.17 9.2,-0.55 17.9,-5.21 23.3,-12.5 42.7,-58.4 55.5,-127.33 35,-189.2 -25.6,-77.6 -68.6,-153.06 -127.7,-224.14 l -1.5,-1.5 c -153.5,-127.33 -367.1,-187.87 -612.2,-187.87" />
      </g>
      <g
         transform="scale(0.219038)"
         id="g3784">
        <path
           id="path3786"
           style="fill:#fd6ccb;fill-opacity:1;fill-rule:nonzero;stroke:none"
           d="m 16154.4,4059.02 c -81.2,-67.43 -178.4,-115.87 -287.2,-146.59 -43.1,-12.24 -88,-21.64 -134.6,-28.26 -512,-74.01 -1217.7,178.18 -1783.2,654.91 -434.1,365.78 -1039.2,460.37 -1420.3,480.78 -140.1,274.11 -188.5,535.66 -200,739.96 0.1,0.6 -0.1,1.14 0,1.74 184.9,62.73 520.6,157.59 867.7,161.43 282.4,3.2 572.2,-53.92 794,-237.68 538.5,-445.86 482.8,-963.34 1263.1,-1317.12 586.7,-265.98 905.7,27.9 967.8,94.6 5.8,6.3 19,3.88 25,-4.29 39,-53.19 53.3,-118.89 33.4,-178.88 -24.8,-75.24 -67,-150.02 -125.7,-220.6" />
      </g>
      <g
         transform="scale(0.219193)"
         id="g3788">
        <path
           id="path3790"
           style="fill:#102770;fill-opacity:1;fill-rule:nonzero;stroke:none"
           d="m 16142.9,4056.15 h 0.3 -0.3 m -3615.5,971.29 c 415.1,-23 995.7,-125.69 1419.5,-482.82 558.7,-470.86 1254.6,-726.8 1772.9,-651.85 46.1,6.58 90.8,15.97 133,27.97 109.3,30.8 204.1,79.11 282,143.62 56.9,68.61 98.3,141.2 122.9,215.84 18.1,54.65 6.5,116.01 -31.7,168.34 -2.1,2.78 -6.5,3.47 -7.7,3.01 -58.9,-63.32 -384.6,-366.84 -979.9,-96.9 -467.1,211.78 -633.9,477.84 -810.6,759.51 -116.9,186.32 -237.7,378.98 -454.2,558.32 -192.6,159.5 -457.5,238.83 -786,234.86 -345.1,-3.83 -680.9,-99.36 -855.4,-157.98 15.2,-253.25 80.9,-496.05 195.2,-721.92 M 15534,3856.96 c -496.5,0 -1103.8,250.24 -1602,670.1 -421,354.93 -1000.5,455.71 -1412.4,477.79 -4.1,0.23 -7.8,2.56 -9.6,6.25 -118.8,232.49 -186.4,482.82 -201.1,744 0,0.55 0,2.88 0,3.43 0.4,4.51 3.5,8.35 7.8,9.85 173.3,58.76 517,157.99 870.7,161.96 334.3,4.15 603.9,-77.1 800.9,-240.2 219.3,-181.67 341.2,-375.88 459,-563.8 174.7,-278.65 339.8,-541.89 800.6,-750.75 581,-263.42 896.6,30.34 954,91.88 4.5,5.02 11.5,7.67 19.1,7.17 9.2,-0.51 18.2,-5.3 23.5,-12.5 42.8,-58.45 55.5,-127.38 35,-189.15 -25.6,-77.65 -68.6,-153.11 -127.7,-224.19 -0.5,-0.5 -1,-1.05 -1.5,-1.46 -80.5,-66.88 -178.5,-116.93 -291.3,-148.73 -43.1,-12.27 -88.9,-21.89 -135.9,-28.6 -60.8,-8.76 -124,-13.05 -189.1,-13.05" />
      </g>
      <g
         transform="scale(0.205975)"
         id="g3792">
        <path
           id="path3794"
           style="fill:#c24bb1;fill-opacity:1;fill-rule:nonzero;stroke:none"
           d="m 16300,4215.89 c -435.7,61.17 -939.1,286.2 -1376.8,644.74 5.1,53.99 7.9,108.85 8.1,164.63 0.3,42.43 -0.7,83.07 -2.7,121.96 320.8,-363.74 736.6,-749.66 1371.4,-931.33 m -2543.7,1688.55 c -38.8,61.95 -79.9,117.78 -123.2,167.5 2.1,3.4 4.1,6.75 6.1,10.1 0.1,0.09 0.1,0.09 0.1,0.19 0.2,0.24 0.4,0.53 0.5,0.83 0,0 0.1,0.09 0.1,0.14 0.5,0.78 0.9,1.55 1.4,2.33 0.1,0.2 0.2,0.34 0.3,0.54 0.1,0.19 0.2,0.33 0.3,0.53 0.2,0.24 0.3,0.44 0.4,0.68 0.1,0.14 0.2,0.24 0.2,0.39 0.3,0.39 0.4,0.68 0.7,1.07 0,0.09 0.1,0.19 0.1,0.24 0.2,0.34 0.4,0.68 0.6,0.97 0,0.05 0.1,0.15 0.1,0.19 0.2,0.34 0.4,0.73 0.6,1.07 0,0.05 0.1,0.1 0.1,0.1 0.4,0.78 0.9,1.65 1.3,2.43 0.1,0.04 0.1,0 0.1,0.09 0.6,1.02 1.2,1.99 1.8,3.06 108.1,-21.17 222.7,-51.75 334.8,-94.62 -77.5,-21.46 -153.9,-54.18 -226.4,-97.83" />
      </g>
      <g
         transform="scale(0.220134)"
         id="g3796">
        <path
           id="path3798"
           style="fill:#390075;fill-opacity:1;fill-rule:nonzero;stroke:none"
           d="m 16197.8,4387.74 -0.1,-0.18 0.1,0.18 M 16074,4038.82 h 0.2 -0.2 m -3557.7,1030.82 c 420.2,-27.66 990.9,-137.55 1413.6,-493.83 727.1,-612.86 1661.8,-827.68 2089,-481.8 49.3,60.51 85.1,123.93 106.4,188.61 4.6,13.77 6,28.44 4.3,43.3 -141,-110.71 -470.4,-282.97 -983.7,-50.15 -483.2,219.04 -662.4,504.91 -835.8,781.34 -113.6,181.12 -231,368.36 -438.4,540.12 -436.8,361.74 -1172.1,192.3 -1522.3,80.77 18.6,-212.14 74.6,-416.29 166.9,-608.36 m 2954.2,-1295.21 c -126.9,0 -263.1,15.9 -406.2,48.06 -423.3,95.08 -861.7,320.45 -1234.4,634.57 -405.3,341.57 -967.3,438.87 -1367.3,460.27 l -44.7,2.41 -20.3,39.79 c -122.9,240.49 -192.7,499.24 -207.4,769.08 l -3.2,58.83 55.8,18.94 c 345.5,117.15 1205.6,342.97 1727.9,-89.58 226.6,-187.66 350.8,-385.68 470.9,-577.2 168.6,-268.79 327.8,-522.68 768.4,-722.47 537.3,-243.67 822.4,20.85 874.1,76.36 18.1,19.4 44.3,29.67 71.7,28.08 28.7,-1.68 55.8,-16.4 72.7,-39.43 55.3,-75.59 71.5,-166.13 44.2,-248.26 -28,-85.13 -74.8,-167.53 -139.1,-244.71 l -4.5,-5.5 -5.6,-4.59 c -163.1,-135.37 -387.9,-204.65 -653,-204.65" />
      </g>
      <g
         transform="scale(0.217081)"
         id="g3800">
        <path
           id="path3802"
           style="fill:#fef26b;fill-opacity:1;fill-rule:nonzero;stroke:none"
           d="m 16300,4095.61 c -319.5,-384.87 -1123.6,-647.26 -2268.4,-182.83 -776.7,315.04 -1182.3,747.14 -1389.6,1152.34 384.5,-20.64 995.1,-116.05 1433.1,-485.17 753.5,-635.06 1753.8,-875.29 2224.9,-484.34" />
      </g>
      <g
         transform="scale(0.20449)"
         id="g3804">
        <path
           id="path3806"
           style="fill:#c3a96e;fill-opacity:1;fill-rule:nonzero;stroke:none"
           d="m 16115.7,3975.45 c -343.7,0 -744.8,75.6 -1188.8,255.71 -29.3,11.93 -58.3,24.06 -86.9,36.38 29.1,52.77 55,106.85 77.8,162.31 43,-29.44 87.5,-57.22 134.3,-82.99 354.3,-195.17 870.4,-303.98 1247.9,-363.88 -59.4,-4.94 -120.8,-7.53 -184.3,-7.53" />
      </g>
      <g
         transform="scale(0.217888)"
         id="g3808">
        <path
           id="path3810"
           style="fill:#390075;fill-opacity:1;fill-rule:nonzero;stroke:none"
           d="m 12735,4957.42 c 254.8,-415.13 682.6,-746.54 1274.1,-986.43 689,-279.55 1267.8,-290.79 1675.8,-156.64 -143.6,-5.19 -299.9,10.37 -465.3,47.55 -427.7,96.05 -870.6,323.74 -1247.2,641.11 -362.8,305.8 -849.9,417.78 -1237.4,454.41 m 2390.9,-1384.16 c -363.8,0 -764.4,85.46 -1175.8,252.38 -685.4,277.99 -1164.7,676.68 -1424.7,1184.97 l -62.1,121.34 136.1,-7.29 c 428.1,-22.95 1031.4,-128.6 1474.1,-501.68 737.8,-621.88 1687.1,-838.14 2116.1,-482.18 l 110.4,-110.42 c -188.4,-227.09 -497.7,-381.89 -870.8,-435.91 -97.6,-14.19 -199,-21.21 -303.3,-21.21" />
      </g>
      <path
         id="path3812"
         style="fill:#fccaca;fill-opacity:1;fill-rule:nonzero;stroke:none;stroke-width:0.1"
         d="m 1245.47,1445.15 -0.43,-0.95 -0.09,0.05 c 0.17,0.3 0.35,0.6 0.52,0.9" />
      <path
         id="path3814"
         style="fill:#390075;fill-opacity:1;fill-rule:nonzero;stroke:none;stroke-width:0.1"
         d="m 1246.65,1441.68 h -2.66 l -2.18,2.15 1.47,2.57 1.72,-0.88 0.03,1.2 v -1.21 l 0.78,-0.4 0.92,0.92 -0.91,-0.93 1.94,-0.99 -1.11,-2.43" />
      <g
         transform="scale(0.174416)"
         id="g3816">
        <path
           id="path3818"
           style="fill:#ffffff;fill-opacity:1;fill-rule:nonzero;stroke:none"
           d="m 8490.85,6669.23 c 0,0 -1349.07,1543.49 -2145.96,227.44 V 5398.19 H 16300 l -122.7,1498.48 c -796.8,1316.05 -2145.9,-227.44 -2145.9,-227.44 H 8490.85" />
      </g>
      <g
         transform="scale(0.174584)"
         id="g3820">
        <path
           id="path3822"
           style="fill:#390075;fill-opacity:1;fill-rule:nonzero;stroke:none"
           d="M 16300,5378.61 H 6324.35 V 6894.1 l 2.12,3.44 c 199.04,328.72 450.5,508.58 747.37,534.41 694.74,59.68 1412.5,-751.38 1419.72,-759.63 l -21.76,-19.02 c -7.05,8.13 -715.94,808.61 -1395.49,749.9 -286.17,-24.98 -529.43,-198.93 -723.1,-517.18 V 5407.48 h 9915.49 l -121.1,1477.97 c -193.7,318.64 -437.1,492.77 -723.3,517.75 -679.6,58.71 -1388.5,-741.77 -1395.6,-749.9 l -21.7,19.02 c 7.2,8.19 725,819.31 1419.7,759.63 296.9,-25.83 548.4,-205.69 747.4,-534.41 l 1.8,-2.92 0.2,-3.38 123.9,-1512.63" />
      </g>
      <path
         id="path3824"
         style="fill:#ffffff;fill-opacity:1;fill-rule:nonzero;stroke:none;stroke-width:0.1"
         d="m 1190.42,1080.72 c -17.8,40.24 -44.51,74.8 -66.68,99.19 v 18.14 c 6.64,10.57 13.6,20.1 20.88,28.61 0.02,-0.03 0.04,-0.05 0.05,-0.07 0.01,-0.01 0.02,-0.02 0.03,-0.03 0.13,-0.16 0.26,-0.31 0.39,-0.48 0.04,-0.03 0.06,-0.06 0.09,-0.1 0.03,-0.03 0.06,-0.07 0.09,-0.1 0.04,-0.06 0.08,-0.11 0.13,-0.16 0.02,-0.02 0.03,-0.04 0.05,-0.06 0.06,-0.08 0.12,-0.15 0.19,-0.23 0.01,-0.01 0.02,-0.02 0.02,-0.03 0.06,-0.07 0.12,-0.14 0.18,-0.21 0.01,-0.01 0.02,-0.02 0.03,-0.03 1.17,-1.39 2.38,-2.79 3.61,-4.18 0.24,-0.28 0.49,-0.55 0.74,-0.83 6.38,-7.05 14.41,-13.77 23.72,-19.89 l 16.73,-107.93 c -0.38,-7.24 -0.25,-11.61 -0.25,-11.61" />
      <g
         transform="scale(0.172144)"
         id="g3826">
        <path
           id="path3828"
           style="fill:#ffffff;fill-opacity:1;fill-rule:nonzero;stroke:none"
           d="m 15892.7,6287.17 101.7,655.91 c 74.7,42.87 138,92.25 185.6,144.82 1.4,1.62 2.9,3.25 4.3,4.88 2.4,2.61 4.6,5.17 6.9,7.78 35.6,-43.8 69.8,-92.02 102.6,-144.65 l 6.2,-75.57 c -131.4,-140.87 -297.3,-348.61 -407.3,-593.17" />
      </g>
      <g
         transform="scale(0.175554)"
         id="g3830">
        <path
           id="path3832"
           style="fill:#390075;fill-opacity:1;fill-rule:nonzero;stroke:none"
           d="M 16300,5265.9 H 6206.47 v 1613.24 l 14.07,23.29 c 212.41,350.84 483.95,542.97 807.04,571.11 731.91,64.14 1451.24,-748.88 1481.54,-783.52 35.32,-40.44 31.22,-101.9 -9.23,-137.28 -40.44,-35.43 -101.9,-31.33 -137.33,9.17 -6.78,7.75 -685.04,772.93 -1318.46,717.67 -250.86,-21.98 -467.09,-175.1 -642.99,-455.18 V 5460.54 h 9687.59 l -111.3,1360.27 c -176.3,282.36 -393.3,436.67 -645.2,458.77 -633.2,55.83 -1311.7,-709.92 -1318.5,-717.67 -35.4,-40.5 -96.9,-44.54 -137.3,-9.17 -40.5,35.38 -44.6,96.84 -9.3,137.28 30.3,34.64 749.6,847.78 1481.6,783.52 323.1,-28.14 594.6,-220.27 807,-571.11 l 11.9,-19.65 132.4,-1616.88" />
      </g>
      <g
         transform="scale(0.187715)"
         id="g3834">
        <path
           id="path3836"
           style="fill:#ffffff;fill-opacity:1;fill-rule:nonzero;stroke:none"
           d="m 16292.9,5514.48 c -2.7,-503.84 -196,-875.58 -436.4,-1143.49 -350,-389.84 -855.2,-604.1 -1379.2,-604.1 H 6449.41 c -524.04,0 -1029.48,214.26 -1379.47,604.1 -240.42,267.91 -433.44,639.65 -436.12,1143.49 -7.16,1343.91 1138.4,1144.67 1451.05,586.21 141.55,-252.93 321.61,-686.14 321.61,-686.14 h 8113.72 c 0,0 179.8,433.21 321.6,686.14 312.7,558.46 1458.2,757.7 1451.1,-586.21" />
      </g>
      <g
         transform="scale(0.187715)"
         id="g3838">
        <path
           id="path3840"
           style="fill:#fec2e6;fill-opacity:1;fill-rule:nonzero;stroke:none"
           d="m 16292.9,5514.48 c -2.7,-503.84 -196,-875.58 -436.4,-1143.49 -350,-389.84 -855.2,-604.1 -1379.2,-604.1 h -864 c 721.5,630.69 906.9,1647.66 906.9,1647.66 0,0 179.8,433.21 321.6,686.14 312.7,558.46 1458.2,757.7 1451.1,-586.21" />
      </g>
      <path
         id="path3842"
         style="fill:#fec2e6;fill-opacity:1;fill-rule:nonzero;stroke:none;stroke-width:0.1"
         d="m 869.829,1035.15 c 0.504,-94.58 36.777,-164.36 81.907,-214.65 65.704,-73.18 160.544,-113.4 258.904,-113.4 h 162.18 c -135.44,118.39 -170.24,309.29 -170.24,309.29 0,0 -33.75,81.32 -60.37,128.8 -58.69,104.83 -273.725,142.23 -272.381,-110.04" />
      <path
         id="path3844"
         style="fill:#ffe7f5;fill-opacity:1;fill-rule:nonzero;stroke:none;stroke-width:0.1"
         d="m 1176.83,1050.79 c -42.1,59.05 -107.25,113.86 -171.32,113.86 -5.897,0 -11.786,-0.46 -17.646,-1.43 -51.189,-8.46 -84.749,-59.62 -98.893,-86.03 6.583,59.66 28.838,100.71 65.37,119.81 14.673,7.67 31.422,11.42 48.909,11.42 27.79,0 57.43,-9.48 83.46,-27.77 2.99,-2.1 6.42,-3.11 9.81,-3.11 3.32,0 6.6,0.96 9.41,2.81 42.92,-51.91 70.9,-129.56 70.9,-129.56" />
      <g
         transform="scale(0.186426)"
         id="g3846">
        <path
           id="path3848"
           style="fill:#ffe7f5;fill-opacity:1;fill-rule:nonzero;stroke:none"
           d="m 14768.9,5636.51 c 0,0 145.2,402.84 369,680.97 12.5,-6.07 26.3,-9.23 40.2,-9.23 18.6,0 37.4,5.68 53.7,17.43 142,103.1 304.8,156.69 457.5,156.69 92.4,0 181.1,-19.64 259.4,-59.76 193.2,-99.13 312.6,-311.65 351.3,-620.78 -82.3,146.54 -257.5,394.79 -517.4,437.76 -31.5,5.2 -63,7.67 -94.7,7.67 -343.7,0 -693.1,-294 -919,-610.75" />
      </g>
      <path
         id="path3850"
         style="fill:#390075;fill-opacity:1;fill-rule:nonzero;stroke:none;stroke-width:0.1"
         d="m 1111.99,1204.5 c 15.97,-9.91 29.65,-23.77 40.09,-40 2.52,-3.98 5.1,-8.49 7.01,-12.44 1.88,-3.98 3.81,-7.95 5.57,-11.93 3.64,-7.94 6.76,-16.04 9.95,-24.06 6.28,-16.09 11.85,-32.36 16.98,-48.77 5,-16.47 9.67,-33.01 13.25,-49.98 0.29,-1.34 -0.57,-2.66 -1.91,-2.94 -1.03,-0.22 -2.05,0.24 -2.59,1.07 -18.97,28.78 -36.09,58.24 -53.41,87.11 -4.25,7.25 -8.73,14.34 -13.01,21.43 -2.11,3.59 -4.32,7.03 -6.5,10.51 -2.14,3.51 -3.9,6.32 -6.14,9.37 -8.5,12.01 -18.92,22.73 -29.96,33.41 l -0.3,0.29 c -6.82,6.6 -7,17.46 -0.41,24.27 5.72,5.91 14.67,6.82 21.38,2.66" />
      <g
         transform="scale(0.188721)"
         id="g3852">
        <path
           id="path3854"
           style="fill:#390075;fill-opacity:1;fill-rule:nonzero;stroke:none"
           d="M 14400.1,3656.3 H 6414.98 c -554.79,0 -1079.43,229.97 -1439.36,630.98 -300.85,335.21 -454.65,738.08 -457.09,1197.43 -3.43,643.6 245.24,909.07 454.45,1018.49 260.71,136.29 609.81,97.5 889.44,-98.98 40.9,-28.72 50.76,-85.2 22.04,-126.11 -28.78,-40.96 -85.26,-50.87 -126.17,-22.04 -224.72,157.9 -500.06,191.87 -701.4,86.63 -236.04,-123.41 -359.61,-419.77 -357.28,-856.98 2.21,-413.73 140.42,-776.28 410.78,-1077.46 325.63,-362.81 801.15,-570.85 1304.59,-570.85 h 7985.12 c 503.4,0 978.9,208.04 1304.6,570.85 270.3,301.24 408.5,663.73 410.7,1077.46 2.4,439.49 -122.4,736.49 -360.6,858.78 -205.1,105.24 -483.1,67.67 -708.2,-95.75 -40.5,-29.3 -97.1,-20.29 -126.5,20.14 -29.4,40.48 -20.4,97.07 20.1,126.48 279.8,203.05 632.1,246.29 897.3,110.22 211.3,-108.47 462.5,-373.62 459,-1020.88 -2.4,-459.35 -156.2,-862.22 -457.1,-1197.43 -359.9,-401.01 -884.5,-630.98 -1439.3,-630.98" />
      </g>
      <g
         transform="scale(0.174255)"
         id="g3856">
        <path
           id="path3858"
           style="fill:#390075;fill-opacity:1;fill-rule:nonzero;stroke:none"
           d="m 15628.8,5838.13 c 19.7,95.26 45.6,188.05 73.2,280.45 28.4,92.1 59.4,183.41 94.1,273.73 17.9,44.94 35,90.39 55.1,134.92 10,22.33 20.1,44.59 30.8,66.92 5.4,11.3 10.7,21.69 16.9,33.45 6.3,12 13,23.82 19.9,35.52 56.2,92.63 130.8,172.63 219,230.47 45.5,29.84 106.5,17.16 136.4,-28.35 25.8,-39.31 19.8,-90.32 -11.7,-122.69 l -1.7,-1.72 c -60,-61.64 -116.4,-123.16 -162.2,-191.39 -5.7,-8.49 -11.4,-17.04 -16.7,-25.71 l -17.5,-29.15 c -12.4,-19.34 -24.4,-39.25 -36.4,-59.17 l -72.8,-120.34 c -97.1,-161.83 -193.4,-326.71 -300.5,-487.68 -4.4,-6.6 -13.2,-8.37 -19.8,-4.01 -5,3.27 -7.2,9.24 -6.1,14.75" />
      </g>
      <g
         transform="scale(0.163845)"
         id="g3860">
        <path
           id="path3862"
           style="fill:#c3b2d5;fill-opacity:1;fill-rule:nonzero;stroke:none"
           d="M 15708.8,4420.04 H 12551 c 79.1,49.19 134.8,114.62 151,199.21 58.3,49.31 118.2,95.64 179.4,139.04 1037.6,28.5 2238.6,36.31 2371.3,50.41 451.1,47.79 754.5,252.8 951.5,463.36 38.1,-7.14 70.3,-13.61 95.8,-19.04 -139.6,-278.31 -331.6,-576.52 -591.2,-832.98 m -4285.5,0 H 8266.54 c -259.63,256.46 -451.64,554.85 -591.29,833.22 18.37,3.85 40.1,8.31 64.94,13.13 192.07,-218.32 501.64,-457.69 935.34,-457.69 162.9,0 1499.87,-34.67 2429.77,-59.27 56.9,-40.83 112.6,-84.22 167,-130.18 16.2,-84.59 71.9,-150.02 151,-199.21" />
      </g>
      <g
         transform="scale(0.185723)"
         id="g3864">
        <path
           id="path3866"
           style="fill:#c387c4;fill-opacity:1;fill-rule:nonzero;stroke:none"
           d="m 14632.5,3899.35 h -774.3 c 229.1,226.25 398.4,489.33 521.6,734.86 38.4,-8.08 59.9,-13.41 61.9,-13.9 7.5,-1.93 15.1,-2.85 22.7,-2.85 17.8,0 35.5,5.22 50.7,15.29 21.6,14.27 36.2,37.05 40.2,62.62 l 52.9,341.48 c 71.4,-164.71 280.3,-548.61 676.1,-548.61 667.7,0 924.7,376.95 1015.7,585.06 -68.2,-217.64 -182.4,-416.27 -341.9,-593.89 -330.9,-368.67 -814,-580.06 -1325.6,-580.06" />
      </g>
      <path
         id="path3868"
         style="fill:#c387c4;fill-opacity:1;fill-rule:nonzero;stroke:none;stroke-width:0.1"
         d="m 1354.43,724.2 h -143.79 c -95.01,0 -184.75,39.26 -246.203,107.73 -22.235,24.77 -39.735,51.74 -52.437,80.75 25.223,-39.79 69.005,-87.8 135.49,-93.71 5.78,-0.52 11.42,-0.76 16.91,-0.76 85.04,0 135.7,58.75 155.24,87.17 l 5.17,-33.34 c 0.73,-4.75 3.45,-8.98 7.46,-11.63 2.82,-1.87 6.1,-2.83 9.42,-2.83 1.41,0 2.82,0.17 4.21,0.52 0.37,0.09 4.43,1.09 11.65,2.62 22.88,-45.61 54.34,-94.5 96.88,-136.52" />
      <g
         transform="scale(0.18717)"
         id="g3870">
        <path
           id="path3872"
           style="fill:#390075;fill-opacity:1;fill-rule:nonzero;stroke:none"
           d="m 14571.6,3782.98 h -3823.9 c 90,17.47 173.7,45.47 239.2,86.23 h 2764.2 768.3 c 507.6,0 987,209.76 1315.4,575.57 158.2,176.26 271.5,373.36 339.2,589.31 34.5,78.7 44.9,133.03 44.9,133.03 0,0 29.4,-13.73 81.1,-38.36 -47.6,-345.67 -209.9,-610.89 -404.7,-810.92 -335.8,-345.25 -820.8,-534.86 -1323.7,-534.86 m -4332.7,0 H 6374.74 c -503.02,0 -987.92,189.61 -1323.81,534.86 -194.74,200.03 -357.03,465.25 -404.64,810.92 51.7,24.63 81.02,38.36 81.02,38.36 0,0 45.42,-133.41 145.27,-290.91 67.86,-154.99 161.36,-299.09 280.15,-431.43 328.33,-365.81 807.79,-575.57 1315.4,-575.57 h 768.23 2763.38 c 65.46,-40.76 149.16,-68.76 239.16,-86.23" />
      </g>
      <g
         transform="scale(0.169096)"
         id="g3874">
        <path
           id="path3876"
           style="fill:#fef26b;fill-opacity:1;fill-rule:nonzero;stroke:none"
           d="m 13770.8,9340.21 c 124,-483.27 1347.4,-1322.98 2529.2,-83.8 l -703,1129.29 -2051.2,93.3 225,-1138.79" />
      </g>
      <g
         transform="scale(0.170415)"
         id="g3878">
        <path
           id="path3880"
           style="fill:#390075;fill-opacity:1;fill-rule:nonzero;stroke:none"
           d="m 13762,9290.34 c 55.3,-208.32 363.9,-497.14 769.1,-602.89 365.1,-95.23 920.1,-80.62 1516,511.23 L 15419,10207.6 13564.1,10292 13762,9290.34 m 1101.3,-845.65 c -151.4,0 -281.5,22.24 -382.9,48.71 -501.9,131.03 -845.2,483.99 -913.3,749.64 l -1.3,5.46 -248,1255.4 2215.7,-100.8 766.5,-1231.3 -53.6,-56.21 c -511.6,-536.46 -1011.2,-670.9 -1383.1,-670.9" />
      </g>
      <g
         transform="scale(0.176706)"
         id="g3882">
        <path
           id="path3884"
           style="fill:#fd6ccb;fill-opacity:1;fill-rule:nonzero;stroke:none"
           d="m 13815.4,9642.14 c 3.6,-556.18 1486.3,-1548.39 2484.6,-192.97 l -1088.5,1448.43 -2059.4,389 663.3,-1644.46" />
      </g>
      <g
         transform="scale(0.176871)"
         id="g3886">
        <path
           id="path3888"
           style="fill:#102770;fill-opacity:1;fill-rule:nonzero;stroke:none"
           d="m 13162.7,11257.3 653,-1618.84 c 0.7,-1.64 1,-3.45 1,-5.26 1.7,-251.93 333.1,-628.82 823.9,-788.26 146.6,-47.66 292.4,-71.06 435.2,-71.06 447.9,-0.06 866.7,230.16 1191.2,666.41 l -1077.8,1434.11 -2026.5,382.9 m 1913.2,-2509.77 c -186.4,0 -342.5,37.31 -444.1,70.33 -453.9,147.51 -839.2,518.97 -843.5,812.46 l -661.7,1640.48 c -2,4.8 -1.1,10.3 2.2,14.3 3.3,4.1 8.5,5.9 13.6,5 l 2057.5,-388.7 c 3.5,-0.7 6.6,-2.6 8.7,-5.5 l 1087.6,-1446.95 c 3.7,-5.04 3.8,-11.99 0.1,-17.02 -405.5,-550.46 -867.3,-684.4 -1220.4,-684.4" />
      </g>
      <g
         transform="scale(0.174783)"
         id="g3890">
        <path
           id="path3892"
           style="fill:#c24bb1;fill-opacity:1;fill-rule:nonzero;stroke:none"
           d="m 16136.8,9315.96 22.4,144.06 c 47.1,6.64 94.1,14.77 140.8,24.32 -53.9,-62.88 -108.4,-118.78 -163.2,-168.38" />
      </g>
      <g
         transform="scale(0.178012)"
         id="g3894">
        <path
           id="path3896"
           style="fill:#390075;fill-opacity:1;fill-rule:nonzero;stroke:none"
           d="m 13210.2,11076.9 599.6,-1486.61 0.1,-18.31 c 1.5,-217.23 314.7,-560.58 762.1,-705.96 326.1,-105.89 945.6,-175.55 1488,514.18 l -1014.6,1349.9 -1835.2,346.8 m 1771.3,-2467.72 c -196.7,0 -361.6,39.44 -468.8,74.27 -481.6,156.5 -876.8,542.15 -894.1,867.86 l -717.8,1779.39 2253.4,-425.7 1145.8,-1524.58 -42.4,-57.52 C 15835,8749 15351.9,8609.18 14981.5,8609.18" />
      </g>
      <g
         transform="scale(0.190651)"
         id="g3898">
        <path
           id="path3900"
           style="fill:#39d5ff;fill-opacity:1;fill-rule:nonzero;stroke:none"
           d="M 15990.6,9618.57 C 15690.2,8555.58 13653.2,8332.24 13305.5,9445.59 l -211.6,211.64 139.3,813.77 -1843.7,3299.7 1569.7,185 c 0,0 557.1,-246 867.8,-1239.3 183.9,-587.8 109.3,-1661.4 231.7,-2412.8 127.9,372.7 339.3,766.6 677.7,885.3 748.4,262.9 1563.6,-476.1 1254.2,-1570.33" />
      </g>
      <g
         transform="scale(0.188969)"
         id="g3902">
        <path
           id="path3904"
           style="fill:#102770;fill-opacity:1;fill-rule:nonzero;stroke:none"
           d="m 13224.8,9747.75 208.6,-208.66 c 1.5,-1.53 2.6,-3.38 3.3,-5.45 172,-550.72 745.1,-738.85 1224.5,-733.35 599.9,8.21 1293.7,322.54 1458.9,907.51 151.5,535.7 42.2,1043.1 -292.3,1357.4 -265.1,249.1 -622.4,327.9 -955.8,210.7 -349.5,-122.6 -560.3,-548.9 -675.6,-884.9 -1.9,-5.8 -8,-9.4 -13.7,-8.9 -6.1,0.5 -11,5.1 -12,11.1 -53.3,326.9 -69.8,717.7 -85.8,1095.7 -21.8,514.5 -42.4,1000.5 -147.5,1336.7 -296,946.3 -819.4,1218.5 -865,1240.7 l -1560.2,-183.9 1850.4,-3311.7 c 1.5,-2.7 2,-5.7 1.6,-8.7 l -139.4,-814.25 m 1412.4,-974.29 c -482.8,0 -1050.4,196.07 -1225,749.07 l -211.2,211.25 c -3,3.07 -4.4,7.41 -3.7,11.64 l 139.8,816.38 -1857.9,3325 c -2.2,3.9 -2.3,8.6 -0.2,12.5 2,4 5.9,6.7 10.3,7.2 l 1583.8,186.7 c 2.3,0.4 4.7,-0.1 6.9,-1 5.7,-2.5 571.1,-262.2 882.8,-1258.6 106.2,-339.6 126.9,-827.3 148.7,-1343.6 15.1,-357.2 30.7,-725.8 77.4,-1040.2 168.7,467.1 395.4,753.4 674.2,851.3 343.1,120.5 710.5,39.6 982.9,-216.5 341.9,-321.2 454,-838.6 299.8,-1384 -176.7,-625.39 -893.2,-918.93 -1484.2,-926.98 -8.1,-0.1 -16.3,-0.16 -24.4,-0.16" />
      </g>
      <g
         transform="scale(0.185265)"
         id="g3906">
        <path
           id="path3908"
           style="fill:#7ee4ff;fill-opacity:1;fill-rule:nonzero;stroke:none"
           d="m 16016.5,10681.7 c -146.7,0 -247.7,297.7 -491.4,309.6 -3.4,0.2 -6.7,0.2 -10.1,0.2 -89,0 -184.4,-56.2 -272.6,-112.4 -88.2,-56.3 -169.1,-112.6 -229.3,-112.6 -7.7,0 -15.1,0.9 -22.2,2.9 -120.6,34.3 -109.1,133.1 -81.2,189.4 52,105.3 219.2,330.9 578.3,330.9 27.8,0 56.8,-1.3 87,-4.2 379.5,-36.2 725,-509.8 480.4,-596.9 -13.4,-4.7 -26.4,-6.9 -38.9,-6.9" />
      </g>
      <g
         transform="scale(0.185534)"
         id="g3910">
        <path
           id="path3912"
           style="fill:#3995d5;fill-opacity:1;fill-rule:nonzero;stroke:none"
           d="m 15252.4,9102.9 26.6,171.77 c 6.3,40.53 -14.9,79.18 -50,96.58 397.1,26.31 795.3,172.97 1071,422.03 l -14.6,-30.88 c -13.1,-32.29 -33.9,-60.75 -51.2,-90.93 -75.1,-117.82 -178.3,-218.94 -296.4,-300.43 -201.2,-139 -439.7,-226.48 -685.4,-268.14 m -1195.3,674.97 c -61.7,10.34 -126.9,20.42 -195.4,29.91 26.5,49.21 50.8,99.39 72.8,150.48 34.5,-65.81 75.7,-126.01 122.6,-180.39" />
      </g>
      <g
         transform="scale(0.188967)"
         id="g3914">
        <path
           id="path3916"
           style="fill:#390075;fill-opacity:1;fill-rule:nonzero;stroke:none"
           d="m 14920.6,9534.71 c -54.9,-16.56 -113.1,-27.41 -173.3,-27.68 -60.1,-0.53 -122.5,9.79 -180.9,33.24 -58.9,22.59 -112.5,58.63 -158.3,100.76 -46.3,42.01 -84,91.07 -116.4,141.82 -65.4,101.76 -105.4,212.47 -139.1,322.15 -31.2,110.5 -54.9,221.5 -72,332.7 -67.7,444.9 -66.4,887.1 -86.5,1324.3 -9.7,218.4 -21.9,436.3 -50.2,649.4 -14,106.6 -32.1,211.9 -58,313.3 -6.4,25.4 -13.7,50.2 -21.1,75 l -25.9,75.8 c -17.7,50.4 -33.3,101.7 -54.8,150.5 -77.9,198.5 -177.4,387.9 -301.3,557.9 -62.6,84.3 -129.8,165.2 -205.6,236 -18.5,18.2 -38.5,34.4 -57.6,51.9 -19.4,16.9 -39.9,32.1 -59.8,48.2 -20.8,14.4 -41.1,30.1 -62.1,43 -10.5,6.9 -21,13.3 -31.4,19.1 -5.2,3 -10.5,6.2 -15.3,8.6 l -12.7,6.6 47,-7.1 -1583.8,-186.7 68.3,134 1860.2,-3329.2 15.6,-27.9 -5.4,-31.4 -140.5,-820.98 -25.1,79.17 155.8,-155.95 15.7,-15.77 6.6,-21.17 c 40.9,-131.13 112.8,-250.31 208.8,-348.26 95.8,-98.22 214.4,-175.32 343.6,-231.31 259.3,-111.92 555.3,-143.41 841.3,-114.78 285.9,29.63 569.3,120.12 801.8,280.84 116,80.01 217.3,179.29 291.1,294.97 17,29.64 37.4,57.58 50.2,89.28 l 21.9,46.25 c 7.7,15.29 11.5,32.01 17.5,47.94 l 16.7,48.26 13.3,52.13 c 4.3,17.41 9.2,34.77 13,52.28 l 10.2,52.71 c 26.7,140.59 36,283.99 21.1,424.29 -5.6,70.5 -20.7,139.3 -37.7,207.2 -19.5,67.3 -43.2,133.2 -73.7,195.8 -31.3,62 -66.4,122.2 -108.9,177 -42.4,54.5 -89.4,105.4 -141.7,150.3 -52.7,44.2 -109.6,82.9 -170.1,115 -60.4,32.2 -125,55.5 -190.8,72.4 -33,8.8 -66.7,13.2 -100.3,18.4 -33.8,2.5 -67.6,5.9 -101.6,4.7 -67.7,-1.1 -135.7,-8.6 -201.1,-27.3 -64.9,-17.9 -130.2,-42.7 -191.5,-73.2 -61.2,-30.6 -118.1,-67.8 -170.9,-109.8 -211.9,-168.8 -333.7,-438.6 -386.3,-726.1 l -0.4,-2.4 c -3.1,-16.5 -18.9,-27.5 -35.4,-24.5 -12.7,2.4 -22.2,12.4 -24.4,24.4 -7.7,40.7 -10.9,79.2 -11.8,119.1 -0.9,39.6 0.8,79.3 5,119 7.9,79.2 25.7,158.2 52.9,234.7 26.8,76.7 65.1,150 111.1,218.8 46.8,68.2 102.9,130.8 166.5,184.6 63.1,54.3 133.7,99.4 207.6,135.8 74.1,36 151.1,63.2 232,83 80.4,20.2 163.8,27.4 246.5,27.9 41.5,0.6 82.8,-3.7 124,-7.7 40.9,-6.6 81.9,-13 121.8,-23.9 80,-20.4 158.1,-48.9 230.9,-87.6 72.8,-38.5 141,-85 203.8,-137.8 62.2,-53.4 118,-113.6 168,-178.1 50,-64.5 91.3,-135 127.7,-207.5 35.6,-73.1 63.1,-149.4 85.5,-227 19.8,-78.1 36.7,-157.2 43.3,-237.1 16.8,-159.7 6.2,-320.4 -23.3,-475.83 l -11.4,-58.27 c -4.2,-19.31 -9.5,-38.31 -14.2,-57.47 l -14.7,-57.42 -20,-58.68 c -7.2,-19.32 -12.4,-39.53 -21.5,-58.06 l -26.3,-56.04 c -16,-38.26 -39.8,-72.02 -60.6,-107.53 -88.7,-138.75 -207.6,-254.17 -339.4,-345.29 -132,-91.61 -276.5,-161.09 -426,-212.26 -149.6,-51.12 -304.6,-84.09 -461.1,-100.13 -156.6,-15.87 -315,-14.81 -471.9,5.24 -156.8,20.22 -312.3,59.59 -459.8,123.52 -147.1,63.81 -286.3,153.35 -401.1,271.15 -115.1,117.22 -203.1,263.28 -251.8,420.45 l 22.3,-36.99 -155.7,155.95 -33.1,33.07 7.9,46.1 140.4,820.99 10.2,-59.4 -1860.1,3329.2 -66,118 134.3,15.9 1583.9,186.6 25,3 22.1,-10.1 c 10.5,-4.8 16.6,-8.2 24,-12 7.5,-3.8 13.9,-7.6 20.7,-11.5 13.6,-7.6 26.5,-15.6 38.9,-23.8 25.8,-15.8 49.1,-33.7 73.4,-50.8 22.9,-18.3 46.5,-35.9 68.4,-55 21.6,-19.6 44.3,-38.1 64.9,-58.5 84.9,-79.3 158.7,-168.1 226.9,-260.1 135.1,-185.2 241.2,-388.2 323.8,-598.5 22.6,-51.9 39.3,-105.8 57.9,-159 l 27.3,-80.2 c 8.4,-27.8 16.6,-55.7 23.5,-83.6 28.6,-111.6 47.6,-223.3 62.2,-334.5 14.9,-111.3 24.9,-222.3 33.5,-333 8.8,-110.7 15.4,-221.2 21.1,-331.3 11.2,-220.3 21.4,-439.7 34.5,-657.8 11.9,-218 29.3,-434.8 57.5,-647.4 14.6,-106.3 32.3,-211.4 57.9,-313.2 24.9,-101.7 57.7,-200.42 102.9,-288.95 45.9,-88 106.1,-164.74 188.2,-211.89 40.8,-23.49 86.9,-39.9 136.1,-48.9 49.3,-8.89 101.5,-11 154.8,-8.73 h 0.8 c 16.7,0.74 30.9,-12.22 31.6,-29 0.6,-14.13 -8.6,-26.4 -21.5,-30.32" />
      </g>
      <g
         transform="scale(0.203119)"
         id="g3918">
        <path
           id="path3920"
           style="fill:#fdd800;fill-opacity:1;fill-rule:nonzero;stroke:none"
           d="m 8841.4,14079.2 c -25.94,1215.9 458.8,2212.4 654.74,2216.6 196,4.2 722.66,-970.8 748.66,-2186.8 l -1403.4,-29.8" />
      </g>
      <g
         transform="scale(0.197894)"
         id="g3922">
        <path
           id="path3924"
           style="fill:#fee659;fill-opacity:1;fill-rule:nonzero;stroke:none"
           d="m 9475.5,15303 c -9.71,0 -17.99,4.7 -24.51,15.2 -154.83,249.4 126.43,927.1 238.77,977.3 6.82,3.1 13.13,4.5 19.05,4.5 60.18,0 74.53,-150.9 73.87,-301.9 -1.01,-215.7 -67.41,-426.9 -197.07,-599.3 -41.49,-55.1 -81.71,-95.8 -110.11,-95.8" />
      </g>
      <g
         transform="scale(0.200159)"
         id="g3926">
        <path
           id="path3928"
           style="fill:#c29723;fill-opacity:1;fill-rule:nonzero;stroke:none"
           d="m 10183,14726.5 c -72.7,53.1 -175.1,115.1 -303.21,160.2 151.31,92.4 262.81,187.4 337.21,260.4 25.5,-122.8 47,-252.4 63.1,-388.3 -33.9,-6.9 -66.5,-17.9 -97.1,-32.3 m -1101.52,140.2 c 1.7,15.9 3.44,31.8 5.24,47.4 l 160.03,3.5 c -53.46,-12.7 -108.67,-29.4 -165.27,-50.9 m 543.57,77.2 c -21.99,2.2 -44.42,3.8 -67.3,4.7 266.29,85.9 444.95,356.3 396.18,647.8 -43.26,258.2 -105.26,495.8 -175.56,703.6 120.66,-180.4 279.33,-512.4 392.23,-952.6 -59.9,-69.2 -237.85,-253.8 -545.55,-403.5" />
      </g>
      <g
         transform="scale(0.204116)"
         id="g3930">
        <path
           id="path3932"
           style="fill:#390075;fill-opacity:1;fill-rule:nonzero;stroke:none"
           d="m 8798.2,13926.7 c -45.42,0 -82.7,36.3 -83.68,81.9 -15.48,727.4 148.59,1305.2 247.8,1584.9 58.35,164.6 265.83,701.8 485.7,706.5 0.98,0 1.96,0 2.94,0 219,0 447.4,-523.9 512.41,-685.1 111.03,-275.3 299.63,-845.6 315.03,-1573 1,-46.2 -35.7,-84.5 -81.9,-85.5 -45.6,-0.6 -84.5,35.7 -85.5,82 -25.6,1204.5 -524.87,2048 -659.4,2093.4 -132.47,-51.1 -595.35,-915.1 -569.68,-2119.6 0.98,-46.2 -35.66,-84.5 -81.91,-85.5 -0.64,0 -1.23,0 -1.81,0" />
      </g>
      <g
         transform="scale(0.189371)"
         id="g3934">
        <path
           id="path3936"
           style="fill:#390075;fill-opacity:1;fill-rule:nonzero;stroke:none"
           d="m 9491.36,15410.1 c -44.57,0 -83.32,33 -89.35,78.4 -6.54,49.4 28.2,94.8 77.63,101.3 883.76,117 1290.66,656.1 1294.56,661.5 29.6,40 86,48.7 126.1,19.3 40.1,-29.4 48.9,-85.7 19.6,-125.9 -18,-24.7 -452.4,-606.2 -1416.6,-733.8 -4.02,-0.6 -8.03,-0.8 -11.94,-0.8" />
      </g>
      <g
         transform="scale(0.197438)"
         id="g3938">
        <path
           id="path3940"
           style="fill:#390075;fill-opacity:1;fill-rule:nonzero;stroke:none"
           d="m 9211.26,15533.3 c -41.33,0 -77.9,29.7 -85.19,71.8 -8.1,47.1 23.45,91.8 70.5,100 6.33,1.1 636.31,115.4 912.83,543.2 25.9,40.2 79.4,51.7 119.6,25.7 40.2,-25.9 51.7,-79.5 25.7,-119.6 -318.09,-492.3 -999.78,-614.9 -1028.65,-619.9 -4.96,-0.8 -9.93,-1.2 -14.79,-1.2" />
      </g>
      <g
         transform="scale(0.184157)"
         id="g3942">
        <path
           id="path3944"
           style="fill:#ffffff;fill-opacity:1;fill-rule:nonzero;stroke:none"
           d="m 14170.6,10809.4 c -4.7,-27.2 -9.7,-54.2 -15.1,-81.5 -10,-50.1 -21.1,-100.2 -33.7,-150.7 -38.5,-157.2 -89.5,-316 -154.4,-474.9 -559.4,-1370.2 -2555.2,-1669.24 -3290.7,-1672.98 -735.04,-27.59 -2741.96,186.2 -3358.99,1531.35 -69.56,151.53 -125.92,303.33 -170.56,454.33 -8.74,29.3 -17.05,58.5 -24.92,87.8 -12.76,47.5 -24.22,94.7 -34.59,141.9 -410.03,1847.2 820.49,3528.6 820.49,3528.6 0,0 -1032.76,595.1 -584.17,1387.3 350.4,618.6 1566.54,411.2 1893.65,-498.8 l 2634.39,56.1 c 287.8,923.2 1494.3,1182.1 1870.7,579 481.7,-772.4 -524.6,-1411 -524.6,-1411 0,0 1294.7,-1619.7 972.5,-3476.5" />
      </g>
      <g
         transform="scale(0.176375)"
         id="g3946">
        <path
           id="path3948"
           style="fill:#f883a0;fill-opacity:1;fill-rule:nonzero;stroke:none"
           d="m 13245.7,16154.6 c -227.8,-145.3 -313.3,-418.6 -191,-610.3 122.3,-191.7 406.2,-229.3 634,-83.9 227.8,145.3 313.3,418.6 191,610.3 -122.3,191.7 -406.2,229.3 -634,83.9" />
      </g>
      <g
         transform="scale(0.175228)"
         id="g3950">
        <path
           id="path3952"
           style="fill:#f883a0;fill-opacity:1;fill-rule:nonzero;stroke:none"
           d="m 8784.57,16163.5 c 235.36,-136.3 333.06,-407.5 218.24,-605.5 -114.77,-198 -398.63,-248 -633.98,-111.6 -235.3,136.4 -333,407.6 -218.17,605.6 114.76,198 398.62,248 633.91,111.5" />
      </g>
      <g
         transform="scale(0.159548)"
         id="g3954">
        <path
           id="path3956"
           style="fill:#ffebf6;fill-opacity:1;fill-rule:nonzero;stroke:none"
           d="m 16300,12208.7 c -44.4,-181.5 -103.3,-364.8 -178.3,-548.2 -645.6,-1581.5 -2949.2,-1926.68 -3798.2,-1931 -848.4,-31.84 -3164.87,214.92 -3877.07,1767.6 -80.29,174.9 -145.35,350.1 -196.87,524.4 942.85,569.3 2390.24,950.9 4020.14,985.6 1614.2,34.4 3064.3,-278.8 4030.3,-798.4" />
      </g>
      <g
         transform="scale(0.182518)"
         id="g3958">
        <path
           id="path3960"
           style="fill:#390075;fill-opacity:1;fill-rule:nonzero;stroke:none"
           d="m 10639.7,8409.1 c -426.7,0 -1042.83,67.33 -1635.26,260.03 -838.44,272.68 -1428.41,736.8 -1706.03,1341.97 -513.37,1119.1 -320.95,2241.7 -69.14,2986.4 213.57,631.5 498.2,1096.1 617.97,1276.6 -98.13,67.2 -263.65,194 -405.06,367.4 -293.29,359.6 -339.59,741.7 -133.91,1104.9 160.97,284.3 491.63,433.9 884.52,400.5 412.07,-35.2 972.45,-296.7 1195.72,-918.1 17.48,-48.6 -7.78,-102.3 -56.43,-119.8 -48.66,-17.4 -102.3,7.8 -119.77,56.5 -180.92,503.4 -650.41,761.9 -1035.41,794.8 -318.05,27.1 -581.8,-87.3 -705.68,-306.2 -401.12,-708.3 515.51,-1249.8 554.74,-1272.4 l 90.13,-52.2 -61.37,-84.1 c -3.89,-5.3 -388.01,-536.2 -649.85,-1313.2 -239.65,-711.2 -423.09,-1781.7 63.72,-2843 C 8066.01,8786.87 10053.5,8571.71 10769,8598.67 l 3.1,0.11 c 715.9,3.51 2692.6,303.09 3233.9,1629.72 441.2,1081 212.4,2142.7 -57.3,2843 -294.7,765.3 -701.1,1279.3 -705.2,1284.4 l -65.1,81.5 88.1,55.9 c 38.1,24.4 930.9,604.3 500,1294.9 -133.1,213.4 -401.6,316.5 -718.1,275.9 -383.3,-49.3 -841.3,-327.5 -1000.6,-838.2 -15.4,-49.4 -67.9,-76.9 -117.3,-61.5 -49.4,15.4 -76.9,67.9 -61.5,117.2 196.6,630.4 745.4,915.6 1155.5,968.2 391.1,50.2 727.9,-85.3 900.8,-362.5 221,-354.1 191,-737.8 -86.7,-1109.5 -133.9,-179.3 -293.9,-313 -389.1,-384.4 127.4,-175.2 431.6,-627.2 671.8,-1249.1 283.3,-733.3 523.4,-1846.7 58.1,-2986.6 -251.6,-616.49 -821.3,-1105.27 -1647.3,-1413.4 -648.5,-241.9 -1332.8,-330.49 -1757.6,-332.79 -42.4,-1.59 -87.4,-2.41 -134.8,-2.41" />
      </g>
      <g
         transform="scale(0.15514)"
         id="g3962">
        <path
           id="path3964"
           style="fill:#fdc1e5;fill-opacity:1;fill-rule:nonzero;stroke:none"
           d="m 16293.6,13301.4 c 6.4,-300.1 -357.1,-551.2 -811.8,-561 -454.8,-9.6 -828.6,225.8 -835,526 -6.4,300.1 357.1,551.3 811.8,560.9 454.8,9.7 828.6,-225.7 835,-525.9" />
      </g>
      <g
         transform="scale(0.130541)"
         id="g3966">
        <path
           id="path3968"
           style="fill:#fdc1e5;fill-opacity:1;fill-rule:nonzero;stroke:none"
           d="m 12584,15663.5 c 7.7,-356.7 -424.3,-655.2 -964.7,-666.7 -540.5,-11.5 -984.7,268.4 -992.4,625 -7.6,356.7 424.4,655.2 964.9,666.7 540.4,11.5 984.6,-268.3 992.2,-625" />
      </g>
      <g
         transform="scale(0.165912)"
         id="g3970">
        <path
           id="path3972"
           style="fill:#390075;fill-opacity:1;fill-rule:nonzero;stroke:none"
           d="m 8777.65,15628.8 c -21.52,0 -43.21,6.7 -61.72,20.6 -45.5,34.2 -54.73,98.7 -20.55,144.2 9.22,12.3 227.95,303.2 391.71,466.2 40.32,40.2 105.54,40 145.68,-0.3 40.14,-40.3 40.02,-105.5 -0.3,-145.7 -153.21,-152.5 -370.14,-440.9 -372.37,-443.8 -20.19,-27 -51.11,-41.2 -82.45,-41.2" />
      </g>
      <g
         transform="scale(0.179185)"
         id="g3974">
        <path
           id="path3976"
           style="fill:#fef26b;fill-opacity:1;fill-rule:nonzero;stroke:none"
           d="m 9798.74,16265.4 c -595.86,34.6 -1125.54,-379.2 -1220.86,-968.3 -38.62,-238.6 -16.68,-511.3 140.81,-787.5 381.33,-669.2 1217.39,-664.9 2082.11,-447.3 0,0 -937.71,1556.1 -683.3,2155 0,0 -128.12,37.1 -318.76,48.1" />
      </g>
      <g
         transform="scale(0.177722)"
         id="g3978">
        <path
           id="path3980"
           style="fill:#fffac4;fill-opacity:1;fill-rule:nonzero;stroke:none"
           d="m 8900.08,15815.4 c 174.88,270 467.81,452.1 801.02,484.6 -33.08,-68.6 -56.66,-142.1 -69.49,-219 -274.19,-3.9 -530.21,-101.5 -731.53,-265.6" />
      </g>
      <g
         transform="scale(0.170018)"
         id="g3982">
        <path
           id="path3984"
           style="fill:#c3a96e;fill-opacity:1;fill-rule:nonzero;stroke:none"
           d="m 10414.9,14782.7 c -550.26,0.1 -926.04,185.6 -1138.85,558.9 -134.45,235.9 -180.33,493 -136.45,764.2 10.88,67.2 27.58,132.1 49.52,194.2 17.71,-153.4 65.76,-313.4 157.57,-474.7 228.8,-401.3 612.7,-572.8 1069.01,-603.8 33.3,-44.2 69.3,-87.6 108.3,-130.1 107.4,-117 227,-205.6 353.8,-271.4 -166.2,-24.8 -320.4,-37.3 -462.9,-37.3" />
      </g>
      <g
         transform="scale(0.180261)"
         id="g3986">
        <path
           id="path3988"
           style="fill:#390075;fill-opacity:1;fill-rule:nonzero;stroke:none"
           d="m 9670.6,16075.6 c -521.57,0 -967.1,-370.6 -1050.31,-884.9 -41.38,-255.8 1.89,-498.3 128.7,-720.8 287.59,-504.5 890.38,-645.4 1840.91,-429.1 -208.5,364.2 -776.39,1427.8 -653.35,2009.2 -51.15,9.2 -120.49,19 -201.76,23.7 v 0 c -21.47,1.3 -42.94,1.9 -64.19,1.9 m 156.66,-2322.1 c -113,0 -219.45,7.6 -320.14,22.9 -422.11,64.1 -732.55,265.8 -922.83,599.6 -148.79,261.1 -199.66,545.3 -151.17,845 102.18,631.5 666.48,1079 1312.65,1042 197.83,-11.5 332.03,-49.7 337.63,-51.3 l 102.8,-29.7 -41.8,-98.4 c -191.82,-451.6 420.9,-1637.5 673.2,-2056.3 l 66,-109.6 -124.1,-31.3 c -353.3,-88.8 -661.4,-132.9 -932.24,-132.9" />
      </g>
      <g
         transform="scale(0.185563)"
         id="g3990">
        <path
           id="path3992"
           style="fill:#fd6ccb;fill-opacity:1;fill-rule:nonzero;stroke:none"
           d="m 9690.67,15889.9 c -205.21,-101.2 -347.53,-297.4 -378.31,-524.1 -50.87,-374.7 -45.48,-993.2 397.93,-1476.4 685.11,-746.5 2003.21,-126.2 2003.21,-126.2 0,0 -724,1533.9 -662,1942.8 0,0 -530,594 -1360.83,183.9" />
      </g>
      <g
         transform="scale(0.185699)"
         id="g3994">
        <path
           id="path3996"
           style="fill:#102770;fill-opacity:1;fill-rule:nonzero;stroke:none"
           d="m 9683.57,15878.3 h 0.27 -0.27 m 5.98,-12.2 c -201.94,-99.6 -340.45,-291.6 -370.55,-513.4 -55.84,-411.2 -32.8,-999.1 394.18,-1464.3 635.02,-691.9 1838.32,-188.4 1973.62,-128.6 -73.3,156.4 -709.3,1528.5 -657.7,1930.1 -51.5,53.6 -566.9,557.6 -1339.55,176.2 M 10638,13500.3 c -336,0 -686.1,87.9 -944.79,369.8 -456.98,497.9 -447.45,1144.9 -401.14,1486.2 31.34,230.8 175.45,430.5 385.47,534.1 829.96,409.6 1370.56,-180.8 1375.96,-186.8 2.7,-3 3.9,-7.1 3.3,-11.1 -60.6,-399.9 653.2,-1918.3 660.4,-1933.6 1.5,-3.2 1.7,-7 0.5,-10.3 -1.2,-3.4 -3.8,-6.2 -7,-7.7 -8.2,-3.9 -521.4,-240.6 -1072.7,-240.6" />
      </g>
      <g
         transform="scale(0.181494)"
         id="g3998">
        <path
           id="path4000"
           style="fill:#fec4ea;fill-opacity:1;fill-rule:nonzero;stroke:none"
           d="m 9678.12,15897.3 c 59.12,112.9 153.29,206.1 271.47,264.5 204.51,100.8 388.91,138.2 550.01,138.2 254.3,0 450.5,-93.2 575.2,-176.6 -36.9,-42.2 -66.4,-91.2 -86.5,-145.3 -137.3,81.4 -333.6,160.6 -577.8,160.6 -173.5,0 -371.2,-40 -589.18,-147.5 -51.9,-25.7 -99.89,-57.3 -143.2,-93.9" />
      </g>
      <g
         transform="scale(0.17607)"
         id="g4002">
        <path
           id="path4004"
           style="fill:#c24bb1;fill-opacity:1;fill-rule:nonzero;stroke:none"
           d="m 11220.7,14348.9 c -328.4,0 -667.5,85 -915.4,355 -428.54,467.1 -451.2,1061.1 -394.69,1477.3 5.56,40.9 15.05,80.6 28.17,118.8 5.74,-368.3 100.82,-816.1 442.02,-1187.7 271,-295.5 636.5,-387.9 986.9,-387.9 138.1,0 273.9,14.4 400.7,36.3 120.2,-106.6 250.3,-180.2 379.7,-230.5 -197.1,-72.3 -555.4,-181.4 -927.4,-181.3" />
      </g>
      <g
         transform="scale(0.186799)"
         id="g4006">
        <path
           id="path4008"
           style="fill:#390075;fill-opacity:1;fill-rule:nonzero;stroke:none"
           d="m 9626.54,15784.8 h 0.27 -0.27 m 574.86,52.3 c -156.5,0 -335.72,-36.3 -534.39,-134.4 -177.46,-87.5 -299.19,-256.1 -325.64,-450.9 -53.27,-392.3 -31.91,-952.2 372.06,-1392.4 531.67,-579.4 1508.17,-255 1799.57,-139.9 -155.7,337.6 -642.1,1427.8 -629.2,1848.2 -77.5,73.3 -318.8,269.4 -682.4,269.4 m 375.5,-2498.7 c -351,0 -720,94.1 -998.27,397.3 -475.81,518.4 -466.44,1187.8 -418.58,1540.7 34.69,255.2 193.9,475.9 425.97,590.4 877.58,433.2 1454.88,-197.3 1460.58,-203.8 l 28.7,-32.1 -6.5,-42.5 c -47.1,-310.5 453.2,-1460.3 649.9,-1877.2 l 39.1,-82.8 -82.9,-39 c -34.2,-16.2 -543.5,-251 -1098,-251" />
      </g>
      <g
         transform="scale(0.181245)"
         id="g4010">
        <path
           id="path4012"
           style="fill:#39d5ff;fill-opacity:1;fill-rule:nonzero;stroke:none"
           d="m 11459.5,16294.5 c -223,5.5 -417.8,-149.3 -462.8,-367.7 -53.4,-258.9 -78.4,-644.8 86.8,-1053.2 246.8,-610.1 723.2,-796.7 1101.7,-833.4 924,-89.6 1160.2,966.3 1160.2,966.3 0,0 -600.8,53.3 -846.2,694.9 -75.7,198 -226.6,358.3 -420.2,444.8 -167.1,74.6 -382.2,142.5 -619.5,148.3" />
      </g>
      <g
         transform="scale(0.1814)"
         id="g4014">
        <path
           id="path4016"
           style="fill:#102770;fill-opacity:1;fill-rule:nonzero;stroke:none"
           d="m 11438.2,16266.9 c -211.5,0 -394.4,-148.3 -437.3,-356.5 -51.8,-251.4 -78.9,-636.6 86,-1044.3 250,-618 730.4,-789.2 1089.3,-824 841.1,-81.6 1107.2,813 1140.6,939.9 -98.1,14.5 -618.3,118.1 -841.2,701.1 -75.1,196.3 -221.6,351.4 -412.5,436.6 -207.4,92.6 -413.9,142.1 -613.7,147.1 -3.8,0.1 -7.5,0.1 -11.2,0.1 m 845,-2257.9 c -35.4,0 -72,1.7 -109.7,5.4 -366.6,35.5 -857.1,210.4 -1112.3,841.3 -167.5,414.1 -140,805.2 -87.5,1060.3 46.4,225 246.8,384 476.4,378.5 203.5,-5 413.6,-55.2 624.3,-149.4 197.7,-88.3 349.4,-248.8 427.1,-452.1 239.3,-625.7 827.8,-685 833.7,-685.4 4.1,-0.4 7.7,-2.5 10.1,-5.7 2.3,-3.2 3.2,-7.3 2.3,-11.2 -2.3,-10.3 -229.6,-981.7 -1064.4,-981.7" />
      </g>
      <g
         transform="scale(0.181031)"
         id="g4018">
        <path
           id="path4020"
           style="fill:#b0eeff;fill-opacity:1;fill-rule:nonzero;stroke:none"
           d="m 13195.2,15048.4 c -195.1,19.1 -576.4,112.5 -829.5,536.3 -108.9,182.2 -285.2,314.3 -491,366.1 -123.3,31.2 -268.7,55.1 -424.9,55.1 -68.8,0 -139.8,-4.6 -211.8,-15.4 -68.4,-10.3 -131.6,-35.3 -186.4,-71.6 -1.9,36.6 -2.6,72.5 -2.3,107.6 68.8,163.5 229.9,273.5 412.2,273.5 3.7,0 7.5,0 11.2,-0.1 200.3,-5 407.1,-54.5 614.9,-147.3 191.4,-85.5 338.2,-240.9 413.4,-437.6 165.6,-433 494.9,-602.1 694.2,-666.6" />
      </g>
      <g
         transform="scale(0.181185)"
         id="g4022">
        <path
           id="path4024"
           style="fill:#9fa9c6;fill-opacity:1;fill-rule:nonzero;stroke:none"
           d="m 13244.7,15031.6 c -17.2,0.6 -37.7,1.8 -60.7,4.1 -199.1,64.3 -528.2,233.3 -693.6,666 -75.2,196.5 -221.9,351.8 -413,437.1 -207.7,92.8 -414.4,142.3 -614.4,147.2 -3.8,0.1 -7.5,0.1 -11.2,0.1 -182.2,0 -343.2,-109.8 -411.9,-273.3 0.1,11.5 0.2,22.9 0.5,34.3 -18.1,-35.8 -31.6,-74.3 -40.1,-115 -0.1,-0.9 -0.3,-1.8 -0.5,-2.7 0.2,0.9 0.4,1.8 0.5,2.7 44.3,214.6 233.2,367.9 451.3,367.9 3.9,0 7.8,0 11.8,-0.1 237.2,-5.8 452.5,-73.7 619.6,-148.4 193.6,-86.6 344.5,-246.7 420.3,-444.8 181.7,-475.1 558,-627.6 741.4,-675.1" />
      </g>
      <g
         transform="scale(0.176799)"
         id="g4026">
        <path
           id="path4028"
           style="fill:#3995d5;fill-opacity:1;fill-rule:nonzero;stroke:none"
           d="m 12602.4,14402.1 c -35.3,0 -71.8,1.8 -109.3,5.4 -368.2,35.8 -861.1,211.4 -1117.6,845.5 -157.9,390.3 -144.3,760.6 -98.5,1018 12.5,10.3 25.6,20 39.2,29 9.2,-180.4 45.5,-378.5 127.9,-582.1 252.9,-625.4 741.3,-816.6 1129.4,-854.2 38.6,-3.7 76,-5.5 112.3,-5.5 447.8,0 721.9,273.6 881.3,534 43.9,-11.7 77.6,-17.5 96.2,-20.3 -32.7,-124.6 -283.9,-969.8 -1060.9,-969.8" />
      </g>
      <g
         transform="scale(0.177066)"
         id="g4030">
        <path
           id="path4032"
           style="fill:#1c1b72;fill-opacity:1;fill-rule:nonzero;stroke:none"
           d="m 12585.2,14366.2 c -36.4,0 -73.7,1.8 -112.3,5.5 -387.5,37.5 -875.2,228.4 -1127.7,852.9 -168.6,416.7 -143.6,810.4 -89.5,1075.4 -4.4,-21.9 -8.6,-44.6 -12.6,-68.1 5.6,5 11.1,9.9 16.9,14.6 -45.7,-257 -59.4,-626.8 98.3,-1016.5 256.1,-633.1 748.3,-808.5 1116,-844.2 37.4,-3.6 73.8,-5.4 109.1,-5.4 775.8,0 1026.7,844 1059.3,968.3 -18.6,2.8 -52.2,8.7 -96,20.3 2.5,4.1 4.9,8.1 7.3,12.1 65.2,-16.8 106.3,-20.4 106.3,-20.4 0,0 -222.3,-994.5 -1075.1,-994.5" />
      </g>
      <g
         transform="scale(0.177993)"
         id="g4034">
        <path
           id="path4036"
           style="fill:#8ca6d5;fill-opacity:1;fill-rule:nonzero;stroke:none"
           d="m 11201.3,16161.8 c 3.3,18.3 6.7,36 10.2,53.1 6.1,29.6 15,58.1 26.3,85.1 -0.2,-35.6 0.5,-72.1 2.5,-109.4 -13.5,-8.9 -26.6,-18.5 -39,-28.8" />
      </g>
      <g
         transform="scale(0.178374)"
         id="g4038">
        <path
           id="path4040"
           style="fill:#8076ae;fill-opacity:1;fill-rule:nonzero;stroke:none"
           d="m 11160.7,16112.9 c 4,23.3 8.1,45.9 12.5,67.6 0.1,0.9 0.4,1.8 0.5,2.7 8.6,41.4 22.3,80.5 40.7,116.8 -0.2,-11.5 -0.4,-23.1 -0.5,-34.8 -11.3,-26.9 -20.2,-55.3 -26.3,-84.8 -3.5,-17.1 -6.9,-34.8 -10.2,-53.1 -5.7,-4.6 -11.2,-9.4 -16.7,-14.4" />
      </g>
      <g
         transform="scale(0.182302)"
         id="g4042">
        <path
           id="path4044"
           style="fill:#390075;fill-opacity:1;fill-rule:nonzero;stroke:none"
           d="m 11381.6,16106.5 c -172.6,0 -321.8,-121.1 -356.8,-291 -49.4,-239.4 -75.2,-605.9 81.4,-993 233.7,-577.8 682.3,-737.9 1017.4,-770.4 344.4,-33.2 625.5,103.4 835.1,406.9 100,144.9 159.6,294.2 190.5,387.2 -198.5,48.7 -611.1,210.4 -810,730.7 -67.1,175.4 -197.9,313.9 -368.4,390.1 -196.7,87.8 -391.9,134.7 -580.1,139.3 -3,0.1 -6,0.2 -9.1,0.2 z m 842.5,-2246.8 c -38.4,0 -77.7,1.8 -118.6,5.8 -316.6,30.7 -890,186.8 -1173.2,886.7 -174.1,430.5 -145.7,836.5 -91.1,1101.1 53.9,261.8 287,446.7 554.1,440.4 213.2,-5.2 432.5,-57.5 651.9,-155.6 216.3,-96.5 382.1,-272.1 467.1,-494.2 218.9,-572.6 740.3,-629 762.3,-631 l 105.7,-10.2 -22.8,-103.7 c -2.4,-10.8 -243.3,-1039.2 -1135.4,-1039.3" />
      </g>
      <g
         transform="scale(0.12668)"
         id="g4046">
        <path
           id="path4048"
           style="fill:#390075;fill-opacity:1;fill-rule:nonzero;stroke:none"
           d="m 15380.4,15004.4 c 77.6,-36.4 158.9,-59.9 241,-70.5 82,-10 164.5,-8.2 239.3,10.9 37.3,9.4 73.3,21.5 105,39.8 15.5,9.3 33.3,16.3 46.4,28.8 14,11.4 29.7,21.4 41.5,35.5 52.2,51.5 89.7,122 119.7,205.2 l 1.3,3.7 c 11.7,32.4 47.5,49.1 79.9,37.5 24.4,-8.8 40,-31.5 41.1,-55.9 4.4,-105.1 -24.5,-220.8 -96.6,-314.4 -15.8,-25.1 -37.9,-44.7 -59.6,-64.8 -20.6,-21.5 -45.9,-36.3 -70.1,-53 -50,-30.4 -104.2,-51.8 -159.1,-65.5 -110.4,-25.9 -222.9,-21.9 -327.2,6.4 -104,28.1 -202.6,79.6 -277.6,157.7 -24,24.9 -23.2,64.5 1.8,88.5 19.2,18.4 47,22.2 69.8,11.6 l 3.4,-1.5" />
      </g>
      <g
         transform="scale(0.125741)"
         id="g4050">
        <path
           id="path4052"
           style="fill:#390075;fill-opacity:1;fill-rule:nonzero;stroke:none"
           d="m 16049.2,15913.3 c -63.2,-87.1 -75.1,-186.3 -26.6,-221.5 48.5,-35.2 139.1,7 202.2,94 63.3,87.2 75.2,186.4 26.7,221.5 -48.5,35.3 -139.1,-6.9 -202.3,-94" />
      </g>
      <g
         transform="scale(0.123597)"
         id="g4054">
        <path
           id="path4056"
           style="fill:#390075;fill-opacity:1;fill-rule:nonzero;stroke:none"
           d="m 15666.6,16175.3 c 67.9,-85.8 84.4,-186.1 36.6,-224 -47.8,-37.9 -141.6,1 -209.7,86.9 -68,85.8 -84.5,186.1 -36.6,223.9 47.8,37.9 141.6,-0.9 209.7,-86.8" />
      </g>
      <g
         transform="scale(0.120746)"
         id="g4058">
        <path
           id="path4060"
           style="fill:#ffffff;fill-opacity:1;fill-rule:nonzero;stroke:none"
           d="m 9553.77,13878.4 546.13,805.9 c 0,0 2310.5,669.8 4271.7,127 1904.8,-527.1 1928.4,-1513.1 1928.4,-1513.1 V 11358.8 H 9976.23 l -422.46,2519.6" />
      </g>
      <g
         transform="scale(0.120901)"
         id="g4062">
        <path
           id="path4064"
           style="fill:#390075;fill-opacity:1;fill-rule:nonzero;stroke:none"
           d="m 9981.09,11365.1 h 6277.21 v 1916.1 c -0.2,9.2 -48,975.6 -1910.7,1491.1 -1876.4,519.3 -4103.7,-84.5 -4247.7,-124.7 l -536.42,-791.8 417.61,-2490.7 m 6298.11,-41.7 H 9963.47 c -10.17,0 -18.85,7.4 -20.51,17.5 l -422,2516.3 c -0.82,5.3 0.33,10.7 3.31,15.1 l 545.53,804.9 c 2.6,4 6.7,6.9 11.4,8.3 23.1,6.7 2335.8,664.4 4277.5,127 1895.6,-524.6 1940.3,-1489.9 1941.3,-1530.8 v -1937.4 c 0,-11.5 -9.3,-20.9 -20.8,-20.9" />
      </g>
      <g
         transform="scale(0.120747)"
         id="g4066">
        <path
           id="path4068"
           style="fill:#ffffff;fill-opacity:1;fill-rule:nonzero;stroke:none"
           d="M 16300,13298.2 V 11358.7 H 9976.1 l -422.3,2519.8 346.19,510.7 199.81,295.1 c 0,0 2310.6,669.8 4271.8,127 1904.7,-527.3 1928.4,-1513.1 1928.4,-1513.1" />
      </g>
      <g
         transform="scale(0.120901)"
         id="g4070">
        <path
           id="path4072"
           style="fill:#390075;fill-opacity:1;fill-rule:nonzero;stroke:none"
           d="m 9980.96,11365.1 h 6277.34 v 1915.7 c -0.6,17.9 -56.1,978 -1910.7,1491.4 -1876.5,519.5 -4103.7,-84.4 -4247.6,-124.6 l -536.41,-791.7 417.37,-2490.8 m 6298.24,-41.7 H 9963.34 c -10.17,0 -18.86,7.3 -20.6,17.3 l -421.66,2516.6 c -0.91,5.2 0.33,10.6 3.31,15 l 545.31,804.9 c 2.7,4 6.8,7 11.4,8.3 23.2,6.7 2335.8,664.5 4277.6,126.8 1895.5,-524.6 1940.3,-1489.8 1941.3,-1530.6 v -0.5 -1937 c 0,-11.6 -9.3,-20.8 -20.8,-20.8" />
      </g>
      <g
         transform="scale(0.116764)"
         id="g4074">
        <path
           id="path4076"
           style="fill:#c3b2d5;fill-opacity:1;fill-rule:nonzero;stroke:none"
           d="m 16013.8,13967.7 c -872.5,736.5 -2232.3,1118.4 -4042.9,1134.9 -38.1,0.4 -75.8,0.5 -113.6,0.5 -157.1,0 -310.8,-2.9 -459.5,-7.9 413.2,55.1 895.9,97.4 1405.7,97.4 595.4,0 1227.7,-57.6 1829.2,-219.5 877.7,-236.1 1379.9,-561.2 1667.3,-853.9 -122.8,-38.8 -222,-90.9 -286.2,-151.5" />
      </g>
      <g
         transform="scale(0.170721)"
         id="g4078">
        <path
           id="path4080"
           style="fill:#ffffff;fill-opacity:1;fill-rule:nonzero;stroke:none"
           d="m 16300,9815.79 -386.2,570.01 c 0,0 -1634.2,473.7 -3021.3,89.8 -1347.2,-372.8 -1364,-1070.13 -1364,-1070.13 V 8033.76 h 4472.6 l 298.9,1782.03" />
      </g>
      <g
         transform="scale(0.17088)"
         id="g4082">
        <path
           id="path4084"
           style="fill:#390075;fill-opacity:1;fill-rule:nonzero;stroke:none"
           d="m 11532.6,8041.03 h 4441.2 l 295.5,1762.24 -379.5,560.13 c -101.9,28.4 -1677.7,455.7 -3005.4,88.3 -1317.8,-364.8 -1351.7,-1048.48 -1351.8,-1055.33 V 8041.03 m 4453.7,-29.49 h -4468.5 c -8.1,0 -14.7,6.61 -14.7,14.75 v 1370.43 c 0.7,29.27 32.4,712.18 1373.5,1083.38 1373.9,380.3 3010.1,-85.1 3026.5,-89.8 3.2,-1 6.1,-3.1 8,-5.9 l 385.9,-569.49 c 2.2,-3.1 3,-6.96 2.4,-10.71 l -298.6,-1780.31 c -1.2,-7.14 -7.3,-12.35 -14.5,-12.35" />
      </g>
      <g
         transform="scale(0.170721)"
         id="g4086">
        <path
           id="path4088"
           style="fill:#ffffff;fill-opacity:1;fill-rule:nonzero;stroke:none"
           d="m 16300,9815.91 -298.9,-1782.15 h -4472.5 v 1371.71 c 0,0 16.7,697.23 1364,1070.13 1387,384 3021.2,-89.8 3021.2,-89.8 l 128.9,-190 257.3,-379.89" />
      </g>
      <g
         transform="scale(0.17088)"
         id="g4090">
        <path
           id="path4092"
           style="fill:#390075;fill-opacity:1;fill-rule:nonzero;stroke:none"
           d="m 11532.6,8041.03 h 4441.1 l 295.6,1762.35 -379.5,560.12 c -101.8,28.4 -1677.7,455.7 -3005.3,88.2 -1317.9,-364.8 -1351.7,-1048.48 -1351.9,-1055.33 V 8041.03 m 4453.7,-29.49 h -4468.4 c -8.2,0 -14.8,6.55 -14.8,14.75 v 1370.43 c 0.7,29.27 32.4,712.18 1373.6,1083.38 1373.8,380.3 3010.1,-85 3026.4,-89.8 3.3,-0.9 6.2,-3 8.1,-5.8 l 385.8,-569.53 c 2.2,-3.1 3,-6.96 2.4,-10.65 l -298.6,-1780.49 c -1.2,-7.14 -7.3,-12.29 -14.5,-12.29" />
      </g>
      <g
         transform="scale(0.160329)"
         id="g4094">
        <path
           id="path4096"
           style="fill:#c3b2d5;fill-opacity:1;fill-rule:nonzero;stroke:none"
           d="m 12837.5,10172.4 c -36.8,34.7 -89.3,65.6 -153.6,90.9 212.6,215.7 588.4,457 1252.4,631.5 448.3,117.8 919.6,159.7 1363.4,159.7 360.6,0 703.1,-27.7 1000.3,-64.8 -138.5,6.1 -283.9,9.6 -433.6,9.6 -28,0 -56.3,-0.1 -84.5,-0.3 -1318.7,-12.1 -2309,-290.2 -2944.4,-826.6" />
      </g>
      <g
         transform="scale(0.114307)"
         id="g4098">
        <path
           id="path4100"
           style="fill:#ffffff;fill-opacity:1;fill-rule:nonzero;stroke:none"
           d="m 16300,14120.7 c -2077.9,1810.7 -6587.85,956.1 -6587.85,956.1 L 10862.7,7651.83 c 0,0 3359.4,854.62 5437.3,-956.11 v 7424.98" />
      </g>
      <g
         transform="scale(0.114462)"
         id="g4102">
        <path
           id="path4104"
           style="fill:#390075;fill-opacity:1;fill-rule:nonzero;stroke:none"
           d="m 12691.8,7864.71 c 30.9,0 62,-0.18 93.3,-0.53 994.3,-11.44 2398.4,-217.62 3470.9,-1129.45 v 7356.97 c -1974.7,1709.5 -6196.3,1006.2 -6531.89,946.8 L 10866.1,7668.49 c 139.5,32.85 882.4,196.22 1825.7,196.22 M 16278,6664.66 c -5.3,0 -10.4,1.92 -14.5,5.41 -2042.7,1780.07 -5376.6,958.58 -5410,950.1 -6.1,-1.57 -12.4,-0.43 -17.6,2.97 -5.1,3.41 -8.6,8.83 -9.6,14.94 L 9677.28,15053 c -1.84,11.7 6.02,22.8 17.64,25 11.28,2.2 1144.18,212.2 2515.58,201.1 1267.7,-11.6 3004.9,-222.3 4081.9,-1160.9 4.8,-4.2 7.6,-10.2 7.6,-16.6 V 6686.68 c 0,-8.57 -5.1,-16.43 -12.9,-20.01 -2.9,-1.31 -6.1,-2.01 -9.1,-2.01" />
      </g>
      <g
         transform="scale(0.114307)"
         id="g4106">
        <path
           id="path4108"
           style="fill:#ffffff;fill-opacity:1;fill-rule:nonzero;stroke:none"
           d="m 16300,14120.7 c -2077.9,1810.7 -6587.85,956.1 -6587.85,956.1 L 10862.7,7651.83 c 0,0 3359.4,854.62 5437.3,-956.11 v 7424.98" />
      </g>
      <g
         transform="scale(0.114462)"
         id="g4110">
        <path
           id="path4112"
           style="fill:#390075;fill-opacity:1;fill-rule:nonzero;stroke:none"
           d="m 12691.8,7864.71 c 30.9,0 62,-0.18 93.3,-0.53 994.3,-11.44 2398.4,-217.62 3470.9,-1129.45 v 7356.97 c -1974.7,1709.5 -6196.3,1006.2 -6531.89,946.8 L 10866.1,7668.49 c 139.5,32.85 882.4,196.22 1825.7,196.22 M 16278,6664.66 c -5.3,0 -10.4,1.92 -14.5,5.41 -2042.7,1780.07 -5376.6,958.58 -5410,950.1 -6.1,-1.57 -12.4,-0.43 -17.6,2.97 -5.1,3.41 -8.6,8.83 -9.6,14.94 L 9677.28,15053 c -1.84,11.7 6.02,22.8 17.64,25 11.28,2.2 1144.18,212.2 2515.58,201.1 1267.7,-11.6 3004.9,-222.3 4081.9,-1160.9 4.8,-4.2 7.6,-10.2 7.6,-16.6 V 6686.68 c 0,-8.57 -5.1,-16.43 -12.9,-20.01 -2.9,-1.31 -6.1,-2.01 -9.1,-2.01" />
      </g>
      <g
         transform="scale(0.121794)"
         id="g4114">
        <path
           id="path4116"
           style="fill:#390075;fill-opacity:1;fill-rule:nonzero;stroke:none"
           d="m 10009.1,11401.3 h 6010.3 v 1778.8 c -3.1,38.7 -93.2,893.7 -1809,1368.5 -1729.6,478.8 -3773.2,-23 -4110.4,-112.4 l -480.84,-709.5 389.94,-2325.4 m 6150.6,-280.6 H 9890.35 c -68.48,0 -127.02,49.5 -138.35,117.1 l -418.9,2497.9 c -5.91,35.5 2.05,72.1 22.25,101.9 l 541.4,798.9 c 18.4,27.1 45.66,47 77.1,56.1 95.05,27.6 2351.35,668.9 4311.35,126.5 1966.2,-544.1 2013.7,-1587.8 2014.7,-1632 l 0.1,-1926.1 c 0,-77.5 -62.8,-140.3 -140.3,-140.3" />
      </g>
      <g
         transform="scale(0.171799)"
         id="g4118">
        <path
           id="path4120"
           style="fill:#390075;fill-opacity:1;fill-rule:nonzero;stroke:none"
           d="m 11555.6,8082.8 h 4260.9 l 276.5,1648.55 -340.8,502.95 c -239.1,63.5 -1687.9,419.1 -2914.1,79.7 -1216.3,-336.61 -1280.3,-942.72 -1282.5,-970.19 V 8082.8 m 4345.1,-198.95 h -4444.5 c -55,0 -99.5,44.53 -99.5,99.47 v 1363.11 c 0.8,33.7 34.4,773.57 1428.3,1159.27 1389.6,384.6 2989.1,-70 3056.5,-89.6 22.3,-6.5 41.6,-20.5 54.7,-39.8 l 383.8,-566.37 c 14.4,-21.13 20,-47.03 15.8,-72.23 l -297,-1770.85 c -8,-47.9 -49.5,-83 -98.1,-83" />
      </g>
      <g
         transform="scale(0.114307)"
         id="g4122">
        <path
           id="path4124"
           style="fill:#e9393b;fill-opacity:1;fill-rule:nonzero;stroke:none"
           d="M 16300,14120.8 V 6695.93 c -2078,1810.39 -5437.3,955.85 -5437.3,955.85 L 10552.9,9651.4 9978.15,12557 9712.2,15076.9 c 0,0 4509.8,854.5 6587.8,-956.1" />
      </g>
      <g
         transform="scale(0.110897)"
         id="g4126">
        <path
           id="path4128"
           style="fill:#f49c9d;fill-opacity:1;fill-rule:nonzero;stroke:none"
           d="m 10535,13510.4 c -20.8,8.1 -39.9,15.8 -57.2,22.8 l -291.4,1880.6 c 340.5,54 1234.2,177.3 2291.6,177.3 1262,0 2757,-175.7 3822,-854.4 v -43.1 c -1043.4,501.2 -2347.1,639.5 -3466.5,639.5 -386.8,0 -751.4,-16.5 -1075.9,-40.3 -771.4,-56.2 -1342.3,-649.2 -1271.4,-1320.8 l 48.8,-461.6" />
      </g>
      <g
         transform="scale(0.113259)"
         id="g4130">
        <path
           id="path4132"
           style="fill:#b4284d;fill-opacity:1;fill-rule:nonzero;stroke:none"
           d="m 16300,7072.65 c -864.6,642.33 -2024.4,988.09 -3377.6,1003.71 -33.1,0.36 -65.7,0.53 -98.2,0.53 -800.1,0 -1447.8,-111.86 -1736.5,-171.73 l -118.1,761.89 c 356,54.74 823.4,114.34 1366.5,114.34 639.3,0 1383.3,-82.65 2173.2,-353.53 129.2,-44.24 260.3,-64.9 388.2,-64.9 562.3,0 1062.6,397.94 1062.6,929.64 v 5094.5 c 80.4,-38.7 159.3,-79.6 236.4,-122.8 35.2,-26.8 69.7,-54.3 103.5,-82.5 V 7072.65" />
      </g>
      <g
         transform="scale(0.11254)"
         id="g4134">
        <path
           id="path4136"
           style="fill:#bc6d91;fill-opacity:1;fill-rule:nonzero;stroke:none"
           d="m 16300,14355.4 c -77.6,43.5 -157,84.6 -238,123.6 v 42.5 c 82.1,-52.2 161.5,-107.6 238,-166.1" />
      </g>
      <g
         transform="scale(0.172877)"
         id="g4138">
        <path
           id="path4140"
           style="fill:#e9393b;fill-opacity:1;fill-rule:nonzero;stroke:none"
           d="M 11944.1,9336.71 C 13318,10534 16300,9968.9 16300,9968.9 l -760.8,-4909.45 c 0,0 -2221.2,565.08 -3595.1,-632.19 v 4909.45" />
      </g>
      <g
         transform="scale(0.115356)"
         id="g4142">
        <path
           id="path4144"
           style="fill:#390075;fill-opacity:1;fill-rule:nonzero;stroke:none"
           d="m 12591,7930.07 c 32,0 64,-0.17 96.5,-0.52 1328.6,-15.34 2467.3,-354.81 3316.2,-985.47 V 13924 c -1797.8,1497.4 -5448.4,1014.9 -6211.04,894 L 10886.1,7761.46 c 283.5,58.78 919.5,168.61 1704.9,168.61 m 3560.9,-1443.36 c -35.2,0 -69.8,12.48 -97.4,36.5 -1975.2,1721.28 -5221.5,923.75 -5254,915.51 -40.6,-10.23 -83.4,-3.03 -118.2,20.03 -34.7,22.97 -58.3,59.64 -64.6,100.82 L 9477.46,14917.1 c -12.23,78.9 40.39,153.3 118.85,168.2 11.35,2.1 1148.09,214 2520.69,201.7 1860.6,-16.9 3250.8,-415 4132.1,-1182.9 32.4,-28.2 50.9,-68.9 50.9,-111.7 V 6634.86 c 0,-58.08 -34,-110.78 -86.8,-134.8 -19.7,-8.93 -40.5,-13.35 -61.3,-13.35" />
      </g>
      <g
         transform="scale(0.126679)"
         id="g4146">
        <path
           id="path4148"
           style="fill:#e9393b;fill-opacity:1;fill-rule:nonzero;stroke:none"
           d="M 16300,12741.7 V 6041.99 c 0,-469.46 -1591.9,-469.46 -1591.9,0 v 6699.71 c 0,-497.3 1591.9,-497.3 1591.9,0" />
      </g>
      <g
         transform="scale(0.125629)"
         id="g4150">
        <path
           id="path4152"
           style="fill:#f49c9d;fill-opacity:1;fill-rule:nonzero;stroke:none"
           d="m 15633.5,12189.9 c -257.5,0 -515,51.7 -666.5,155 v 125.3 c 178.4,-91.3 423.1,-134.3 666.5,-134.3 243.5,0 488.1,43 666.5,134.3 v -125.3 c -151.5,-103.3 -409,-155 -666.5,-155" />
      </g>
      <g
         transform="scale(0.125629)"
         id="g4154">
        <path
           id="path4156"
           style="fill:#b4284d;fill-opacity:1;fill-rule:nonzero;stroke:none"
           d="m 15633.5,5873.46 c -392.7,0 -666.5,115.34 -666.5,218.82 v 1016.8 c 151.5,-97.43 409,-146.14 666.5,-146.14 257.5,0 515,48.71 666.5,146.14 v -1016.8 c 0,-103.48 -273.7,-218.82 -666.5,-218.82" />
      </g>
      <g
         transform="scale(0.127726)"
         id="g4158">
        <path
           id="path4160"
           style="fill:#390075;fill-opacity:1;fill-rule:nonzero;stroke:none"
           d="M 14721.3,12265.4 V 5992.27 c 0,-101.78 269.3,-215.23 655.6,-215.23 386.2,0 655.5,113.45 655.5,215.23 v 6273.13 c -175.5,-89.7 -416,-132 -655.5,-132 -239.5,0 -480.1,42.3 -655.6,132 m 655.6,-6755.89 c -425.9,0 -923.2,126.45 -923.2,482.76 v 6644.93 c 0,73.9 59.9,133.8 133.8,133.8 73.9,0 133.8,-59.9 133.8,-133.8 0,-114.1 263.4,-236.2 655.6,-236.2 392.1,0 655.5,122.1 655.5,236.2 0,73.9 59.9,133.8 133.8,133.8 73.9,0 133.8,-59.9 133.8,-133.8 V 5992.27 c 0,-356.31 -497.3,-482.76 -923.1,-482.76" />
      </g>
      <g
         transform="scale(0.126853)"
         id="g4162">
        <path
           id="path4164"
           style="fill:#390075;fill-opacity:1;fill-rule:nonzero;stroke:none"
           d="m 16300,12707.7 c 0,196.6 -365.9,356.1 -817.3,356.1 -451.4,0 -817.4,-159.5 -817.4,-356.1 0,-196.7 366,-356.1 817.4,-356.1 451.4,0 817.3,159.4 817.3,356.1" />
      </g>
      <g
         transform="scale(0.164768)"
         id="g4166">
        <path
           id="path4168"
           style="fill:#b4284d;fill-opacity:1;fill-rule:nonzero;stroke:none"
           d="m 12635.6,4861.62 v 4886.69 c 23.2,19.42 47.1,38.35 71.2,56.81 58.5,32.83 118.4,63.6 179.8,92.61 V 6387.58 c 0,-365.48 343.8,-639.01 730.4,-639.01 87.8,0 178,14.2 266.8,44.6 543,186.2 1054.3,243.01 1493.8,243.01 364.8,0 679.9,-39.14 922.4,-75.98 l -81.6,-526.32 c -198.2,41.09 -642.3,118.11 -1191.3,118.11 -23,0 -46.3,-0.19 -69.8,-0.43 -930.2,-10.74 -1727.4,-248.41 -2321.7,-689.94" />
      </g>
      <g
         transform="scale(0.171682)"
         id="g4170">
        <path
           id="path4172"
           style="fill:#f49c9d;fill-opacity:1;fill-rule:nonzero;stroke:none"
           d="m 16073,8709.64 33.3,315.47 c 45.8,433.82 -323,816.85 -821.2,853.2 -209.6,15.32 -445.1,25.98 -695,25.98 -717.1,0 -1551.4,-87.84 -2222.5,-405.17 v 30.41 c 686.8,429.86 1643.5,541.37 2452.2,541.37 682.9,0 1260.3,-79.59 1480.2,-114.48 l -191.1,-1233.15 c -11.2,-4.31 -23.2,-8.91 -35.9,-13.63" />
      </g>
      <g
         transform="scale(0.130264)"
         id="g4174">
        <path
           id="path4176"
           style="fill:#da94a6;fill-opacity:1;fill-rule:nonzero;stroke:none"
           d="m 16072.5,12402.3 c 73,55.7 148.9,108.1 227.5,157.2 v -40.1 c -77.6,-36.7 -153.4,-75.6 -227.5,-117.1" />
      </g>
      <g
         transform="scale(0.173999)"
         id="g4178">
        <path
           id="path4180"
           style="fill:#390075;fill-opacity:1;fill-rule:nonzero;stroke:none"
           d="M 11965.2,9231.13 V 4603.7 c 562.8,418.1 1317.7,643.16 2198.5,653.33 550.2,6.61 998.7,-70.92 1194.3,-111.44 l 724.9,4678.24 c -505.5,80.23 -2925.8,400.07 -4117.7,-592.7 M 11867,4300.48 c -13.8,0 -27.6,2.93 -40.7,8.85 -35,15.92 -57.5,50.86 -57.5,89.37 v 4877.77 c 0,28.39 12.3,55.4 33.7,74.08 584.3,509.08 1505.9,772.95 2739.4,784.25 910.3,8.3 1663.7,-132.4 1671.2,-133.7 52.1,-9.91 86.9,-59.28 78.8,-111.58 L 15536,5011.74 c -4.2,-27.3 -19.8,-51.61 -42.9,-66.84 -23,-15.28 -51.4,-20.11 -78.3,-13.27 -21.6,5.46 -2173.7,534.14 -3483.3,-606.96 -18.2,-15.92 -41.2,-24.19 -64.5,-24.19" />
      </g>
      <g
         transform="scale(0.177821)"
         id="g4182">
        <path
           id="path4184"
           style="fill:#fec2e6;fill-opacity:1;fill-rule:nonzero;stroke:none"
           d="m 15667.6,8469.95 c 0,0 -470.8,-221 -1028.2,-252.55 -639.7,-36.22 -934,-1171.96 -230.3,-1526.81 482.5,-243.22 1043.1,-67.77 1258.5,175.73 632.4,714.71 0,1603.63 0,1603.63" />
      </g>
      <g
         transform="scale(0.162634)"
         id="g4186">
        <path
           id="path4188"
           style="fill:#f6b0b1;fill-opacity:1;fill-rule:nonzero;stroke:none"
           d="m 15781,8926.44 c 0.1,0.06 0.2,0.06 0.3,0.12 -0.1,-0.06 -0.2,-0.06 -0.3,-0.12 m 0.9,0.43 c 69.2,33.02 144.3,53.37 224.5,57.92 101.1,5.72 199.6,17.15 293.6,32.22 -94,-15.07 -192.4,-26.5 -293.5,-32.22 -80.2,-4.55 -155.4,-24.9 -224.6,-57.92" />
      </g>
      <g
         transform="scale(0.172615)"
         id="g4190">
        <path
           id="path4192"
           style="fill:#ffe7f5;fill-opacity:1;fill-rule:nonzero;stroke:none"
           d="m 14450.7,7576.21 c -9.2,12.05 -17.9,24.33 -26.3,36.85 1.8,332.47 174,667.61 444,797.2 0.2,0.06 0.2,0.06 0.3,0.12 0.2,0.11 0.4,0.17 0.6,0.29 65.2,31.11 136,50.28 211.6,54.57 95.3,5.39 188,16.16 276.5,30.35 445.4,71.38 782.7,229.76 782.7,229.76 0,0 73.7,-103.64 146.7,-269.21 10.5,-86.43 13.2,-176.92 4.5,-269.38 -13.5,31.05 -27,59.96 -40.2,86.55 -41.3,83.54 -125.8,132.72 -214.5,132.72 -27.2,0 -54.8,-4.63 -81.8,-14.37 -192.6,-69.51 -515.9,-165.57 -874,-185.78 -318.6,-18.02 -554,-300.96 -630.1,-629.67" />
      </g>
      <g
         transform="scale(0.170877)"
         id="g4194">
        <path
           id="path4196"
           style="fill:#c3b2d5;fill-opacity:1;fill-rule:nonzero;stroke:none"
           d="m 16113,6994.58 v 0 c 75.3,43.19 139,92.93 187,145.89 -48,-52.96 -111.7,-102.7 -187,-145.89" />
      </g>
      <g
         transform="scale(0.171264)"
         id="g4198">
        <path
           id="path4200"
           style="fill:#390075;fill-opacity:1;fill-rule:nonzero;stroke:none"
           d="m 16292.2,7157.94 c 0,0.06 0.2,0.23 0.3,0.29 -0.1,-0.12 -0.2,-0.18 -0.3,-0.29 m 1.1,1.4 c 0.1,0.06 0.2,0.17 0.3,0.23 -0.1,-0.06 -0.2,-0.17 -0.3,-0.23 m 1.3,1.52 c 0.2,0.17 0.3,0.35 0.4,0.52 -0.1,-0.17 -0.3,-0.35 -0.4,-0.52 m 1.1,1.28 c 0.2,0.18 0.4,0.47 0.5,0.64 -0.2,-0.23 -0.3,-0.46 -0.5,-0.64 m 1,1.23 c 0.2,0.23 0.4,0.47 0.6,0.7 -0.2,-0.23 -0.4,-0.47 -0.6,-0.7 m 0.8,0.99 c 0.5,0.58 1,1.17 1.4,1.69 -0.4,-0.52 -0.9,-1.11 -1.4,-1.69 m 1.7,1.99 c 0.2,0.35 0.5,0.7 0.8,0.99 -0.3,-0.29 -0.6,-0.64 -0.8,-0.99" />
      </g>
      <g
         transform="scale(0.172353)"
         id="g4202">
        <path
           id="path4204"
           style="fill:#99349f;fill-opacity:1;fill-rule:nonzero;stroke:none"
           d="m 16292.7,7256.45 v 0 c 2.5,4.07 4.9,8.07 7.3,12.07 -2.4,-4 -4.8,-8 -7.3,-12.07" />
      </g>
      <g
         transform="scale(0.172275)"
         id="g4206">
        <path
           id="path4208"
           style="fill:#390075;fill-opacity:1;fill-rule:nonzero;stroke:none"
           d="m 16204.4,7125.39 c 36.2,44.29 68,89.1 95.6,134.32 v 0 c -27.6,-45.16 -59.4,-90.03 -95.6,-134.32" />
      </g>
      <g
         transform="scale(0.172439)"
         id="g4210">
        <path
           id="path4212"
           style="fill:#99349f;fill-opacity:1;fill-rule:nonzero;stroke:none"
           d="m 16291.9,7265.11 c 0.2,0.29 0.4,0.64 0.6,0.98 -0.2,-0.34 -0.4,-0.69 -0.6,-0.98 m 0.7,1.16 c 0.6,0.93 1.1,1.85 1.7,2.78 -0.6,-0.93 -1.1,-1.85 -1.7,-2.78 m 2.1,3.42 c 0.1,0.17 0.2,0.46 0.3,0.64 -0.1,-0.23 -0.2,-0.41 -0.3,-0.64 m 0.8,1.45 c 0.1,0.12 0.2,0.35 0.3,0.46 -0.1,-0.17 -0.2,-0.29 -0.3,-0.46 m 1,1.74 c 0.1,0.11 0.1,0.23 0.2,0.29 -0.1,-0.06 -0.1,-0.18 -0.2,-0.29 m 0.9,1.45 c 0,0.11 0,0.17 0.1,0.23 -0.1,-0.06 -0.1,-0.17 -0.1,-0.23 m 0.9,1.51 c 0,0.05 0,0.05 0,0.11 0,0 0,-0.06 0,-0.11 m 1.6,3.01 c 0.1,0.06 0.1,0.06 0.1,0.12 0,-0.12 0,-0.06 -0.1,-0.12" />
      </g>
      <g
         transform="scale(0.173907)"
         id="g4214">
        <path
           id="path4216"
           style="fill:#3968b8;fill-opacity:1;fill-rule:nonzero;stroke:none"
           d="m 16299.8,7633.92 v 0.06 c 0,0 0,0 0,-0.06 m 0.1,1.21 c 0.1,0.17 0.1,0.34 0.1,0.51 0,-0.17 0,-0.34 -0.1,-0.51" />
      </g>
      <g
         transform="scale(0.173279)"
         id="g4218">
        <path
           id="path4220"
           style="fill:#ab6bd5;fill-opacity:1;fill-rule:nonzero;stroke:none"
           d="m 16299.9,8221.65 c -22.7,74.27 -49.1,142.43 -75.5,202.39 0,0 0,0 0,0.05 26.5,-59.96 52.9,-128.11 75.6,-202.44 h -0.1" />
      </g>
      <g
         transform="scale(0.173953)"
         id="g4222">
        <path
           id="path4224"
           style="fill:#3995d5;fill-opacity:1;fill-rule:nonzero;stroke:none"
           d="m 16300,7860.47 c -3.3,46.39 -9.1,91.75 -16.7,135.84 v 0.06 c 7.6,-44.15 13.4,-89.57 16.7,-135.9 v 0" />
      </g>
      <g
         transform="scale(0.17401)"
         id="g4226">
        <path
           id="path4228"
           style="fill:#3968b8;fill-opacity:1;fill-rule:nonzero;stroke:none"
           d="m 16290.5,7631.87 c 8.8,77 9.4,152.69 4.2,226.02 v 0 c 5.3,-73.27 4.6,-149.07 -4.2,-226.02" />
      </g>
      <g
         transform="scale(0.173775)"
         id="g4230">
        <path
           id="path4232"
           style="fill:#390075;fill-opacity:1;fill-rule:nonzero;stroke:none"
           d="m 16299.9,8004.5 c -11.7,67.96 -27.8,132.93 -46.5,193.69 h 0.1 c 18.6,-60.76 34.8,-125.68 46.5,-193.64 l -0.1,-0.05" />
      </g>
      <g
         transform="scale(0.168917)"
         id="g4234">
        <path
           id="path4236"
           style="fill:#390075;fill-opacity:1;fill-rule:nonzero;stroke:none"
           d="m 16208.8,7029.33 c 31.9,14.38 62.4,29.95 91.2,46.41 v 0 c -28.8,-16.52 -59.3,-32.03 -91.2,-46.41" />
      </g>
      <g
         transform="scale(0.174246)"
         id="g4238">
        <path
           id="path4240"
           style="fill:#c387c4;fill-opacity:1;fill-rule:nonzero;stroke:none"
           d="m 15215.4,6708.85 c -168.2,0 -344,35.06 -510.5,119.02 -294.2,148.42 -417.6,430.32 -415.6,714.17 0,-0.12 0,-0.18 0.1,-0.23 -0.2,-44.48 2.6,-88.96 8.7,-132.8 4.3,32.42 10.1,64.56 17.4,96.3 64.3,-84.14 149.2,-156.62 257.3,-211.2 166.7,-84.07 342.5,-119.2 510.6,-119.2 328.8,0 628.4,134.07 773.9,298.43 182.5,206.15 261.7,426.64 281.5,636.8 56.4,-129.81 111.4,-296.53 130.3,-480.47 30.9,288.39 -51.5,558.52 -134.7,747.34 0,0.11 0,0.23 0,0.28 26.3,-59.62 52.5,-127.4 75.1,-201.27 18.6,-60.6 34.7,-125.39 46.4,-193.17 7.6,-44.02 13.3,-89.3 16.7,-135.61 5.2,-73.23 4.6,-148.82 -4.2,-225.72 -0.1,-0.28 -0.1,-0.46 -0.1,-0.74 0,-0.17 0,-0.35 -0.1,-0.52 0,-0.34 -0.1,-0.75 -0.1,-1.15 v -0.05 c -16,-136.82 -57.7,-277.6 -137.1,-415.57 0,-0.05 0,-0.05 -0.1,-0.11 -0.5,-0.98 -1.1,-1.9 -1.6,-2.87 0,-0.06 0,-0.06 0,-0.12 -0.3,-0.4 -0.6,-0.8 -0.8,-1.26 0,-0.06 0,-0.11 -0.1,-0.23 -0.2,-0.4 -0.5,-0.74 -0.7,-1.15 0,-0.05 -0.1,-0.17 -0.2,-0.28 -0.2,-0.4 -0.5,-0.86 -0.7,-1.26 -0.1,-0.12 -0.2,-0.35 -0.3,-0.46 -0.1,-0.29 -0.3,-0.52 -0.5,-0.81 -0.1,-0.17 -0.2,-0.46 -0.3,-0.63 -0.1,-0.17 -0.3,-0.4 -0.4,-0.63 -0.5,-0.92 -1.1,-1.84 -1.6,-2.75 -0.1,-0.06 -0.1,-0.12 -0.1,-0.18 -0.2,-0.34 -0.4,-0.69 -0.6,-0.97 0,-0.12 0,-0.12 -0.1,-0.23 -2.4,-3.96 -4.8,-7.92 -7.2,-11.94 -27.4,-44.71 -58.7,-89.01 -94.6,-132.8 0,-0.06 0,-0.06 0,-0.11 -0.3,-0.29 -0.6,-0.64 -0.8,-0.98 -0.1,-0.06 -0.2,-0.17 -0.2,-0.29 -0.5,-0.51 -1,-1.09 -1.4,-1.66 -0.1,-0.12 -0.2,-0.18 -0.3,-0.29 -0.2,-0.23 -0.4,-0.46 -0.6,-0.69 -0.1,-0.17 -0.3,-0.4 -0.4,-0.57 -0.2,-0.17 -0.4,-0.46 -0.6,-0.63 -0.2,-0.29 -0.4,-0.52 -0.6,-0.75 -0.1,-0.17 -0.2,-0.34 -0.4,-0.52 -0.3,-0.4 -0.7,-0.8 -1,-1.26 -0.1,-0.06 -0.2,-0.17 -0.3,-0.23 -0.2,-0.34 -0.5,-0.74 -0.8,-1.09 -0.1,-0.06 -0.2,-0.23 -0.3,-0.29 -7.9,-9.46 -16,-18.93 -24.3,-28.35 -1.4,-1.55 -2.9,-3.15 -4.3,-4.7 -47,-51.94 -109.5,-100.72 -183.3,-143.07 -27.9,-15.96 -57.5,-31.05 -88.4,-45 -142.9,-64.45 -315.9,-105.48 -497.7,-105.48" />
      </g>
      <g
         transform="scale(0.174246)"
         id="g4242">
        <path
           id="path4244"
           style="fill:#c3a1ce;fill-opacity:1;fill-rule:nonzero;stroke:none"
           d="m 14298.1,7409.01 c -6.1,43.84 -8.9,88.32 -8.7,132.8 8.3,-12.4 17,-24.57 26.1,-36.5 -7.3,-31.74 -13.1,-63.88 -17.4,-96.3 m 1971,220.66 c -18.9,183.94 -73.9,350.66 -130.3,480.47 8.7,91.6 6,181.24 -4.4,266.87 83.2,-188.82 165.6,-458.95 134.7,-747.34" />
      </g>
      <g
         transform="scale(0.179074)"
         id="g4246">
        <path
           id="path4248"
           style="fill:#390075;fill-opacity:1;fill-rule:nonzero;stroke:none"
           d="m 15521.4,8291.11 c -158.2,-64.44 -540.1,-201.59 -979,-226.44 -284.6,-16.14 -471.3,-298.03 -524.4,-553.12 -56,-268.83 2.2,-615.56 333.3,-782.53 445.4,-224.54 954,-52.38 1135.3,152.51 483.3,546.14 158.6,1202.97 34.8,1409.58 z M 14803,6432.22 c -175.7,0 -360.1,36.85 -537.6,126.37 -352.3,177.63 -522.7,566.97 -434.3,991.88 83.8,402.57 365.4,685.75 700.5,704.74 529,29.93 981.4,239.79 985.8,241.91 l 72.2,33.9 46.1,-64.95 c 6.7,-9.44 664.3,-953.29 -6.1,-1710.97 -151.9,-171.61 -471.1,-322.88 -826.6,-322.88" />
      </g>
      <path
         id="path4250"
         style="fill:#fec2e6;fill-opacity:1;fill-rule:nonzero;stroke:none;stroke-width:0.1"
         d="m 1149.5,1506.14 c 0,0 83.7,-39.3 182.82,-44.91 113.76,-6.44 166.09,-208.4 40.96,-271.5 -85.8,-43.25 -185.49,-12.05 -223.8,31.25 -112.45,127.09 0.02,285.16 0.02,285.16" />
      <path
         id="path4252"
         style="fill:#f6b0b1;fill-opacity:1;fill-rule:nonzero;stroke:none;stroke-width:0.1"
         d="m 1368.33,1452.06 c 0,0 0,-0.01 0,0 v 0 m -0.17,0.08 c -0.03,0.01 -0.07,0.03 -0.1,0.04 0.03,-0.01 0.06,-0.03 0.1,-0.04 m -0.16,0.07 c -11.01,5.14 -22.96,8.3 -35.68,9.02 -14.83,0.84 -29.33,2.43 -43.24,4.54 13.91,-2.11 28.4,-3.7 43.24,-4.54 12.71,-0.72 24.67,-3.88 35.68,-9.02" />
      <path
         id="path4254"
         style="fill:#ffe7f5;fill-opacity:1;fill-rule:nonzero;stroke:none;stroke-width:0.1"
         d="m 1444.08,1290.18 c 0,0 0,0 0,0.01 1.13,7.91 1.65,15.94 1.59,23.98 -1.53,-2.3 -3.14,-4.54 -4.84,-6.75 -13.46,56.18 -53.92,104.31 -108.51,107.38 -41.28,2.33 -79.89,10.51 -110.89,19.27 -8.3,2.35 -16.65,3.47 -24.86,3.47 -28.21,0 -54.75,-13.21 -71.85,-35.23 -2.97,19.73 -2.77,39.06 -0.55,57.34 12.61,28.59 25.34,46.48 25.34,46.48 0,0 60.51,-28.42 139.57,-40.36 13.91,-2.11 28.41,-3.7 43.24,-4.54 12.72,-0.72 24.67,-3.88 35.68,-9.02 0.02,-0.01 0.04,-0.02 0.06,-0.03 0.03,-0.01 0.07,-0.03 0.1,-0.04 0.06,-0.03 0.11,-0.06 0.17,-0.08 0,-0.01 0,0 0,0 53.53,-25.21 85.02,-97.1 75.75,-161.88" />
      <path
         id="path4256"
         style="fill:#c3b2d5;fill-opacity:1;fill-rule:nonzero;stroke:none;stroke-width:0.1"
         d="m 1173.94,1200.26 c -9.31,6.12 -17.34,12.84 -23.72,19.89 6.39,-7.05 14.4,-13.77 23.72,-19.88 v -0.01" />
      <path
         id="path4258"
         style="fill:#390075;fill-opacity:1;fill-rule:nonzero;stroke:none;stroke-width:0.1"
         d="m 1196.08,1188.05 c -7.98,3.69 -15.4,7.79 -22.14,12.21 v 0.01 c 6.74,-4.43 14.16,-8.53 22.14,-12.22" />
      <path
         id="path4260"
         style="fill:#c3b2d5;fill-opacity:1;fill-rule:nonzero;stroke:none;stroke-width:0.1"
         d="m 1145.87,1225.16 c -0.01,0.01 -0.02,0.02 -0.03,0.03 0.01,-0.01 0.01,-0.01 0.03,-0.03 m -0.21,0.24 c 0,0.01 -0.01,0.02 -0.02,0.03 0,0 0.02,-0.02 0.02,-0.03 m -0.21,0.26 c -0.02,0.02 -0.03,0.04 -0.05,0.06 0.01,-0.02 0.03,-0.04 0.05,-0.06 m -0.18,0.22 c -0.03,0.03 -0.06,0.07 -0.09,0.1 0.03,-0.04 0.06,-0.07 0.09,-0.1 m -0.18,0.2 c -0.13,0.17 -0.26,0.32 -0.39,0.48 0.13,-0.16 0.26,-0.32 0.39,-0.48 m -0.42,0.51 c -0.01,0.02 -0.03,0.04 -0.05,0.07 v 0 c 0.02,-0.03 0.04,-0.05 0.05,-0.07" />
      <path
         id="path4262"
         style="fill:#390075;fill-opacity:1;fill-rule:nonzero;stroke:none;stroke-width:0.1"
         d="m 1144.62,1226.66 c -0.03,0.03 -0.06,0.07 -0.09,0.11 0.03,-0.04 0.06,-0.08 0.09,-0.11 v 0" />
      <path
         id="path4264"
         style="fill:#ab6bd5;fill-opacity:1;fill-rule:nonzero;stroke:none;stroke-width:0.1"
         d="m 1124.53,1255.57 c -0.96,1.68 -1.9,3.37 -2.8,5.06 0.9,-1.68 1.84,-3.38 2.8,-5.06 v 0" />
      <path
         id="path4266"
         style="fill:#390075;fill-opacity:1;fill-rule:nonzero;stroke:none;stroke-width:0.1"
         d="m 1144.52,1226.77 c -7.82,9.47 -14.44,19.1 -19.99,28.8 v 0 c 5.55,-9.71 12.17,-19.32 19.99,-28.8" />
      <path
         id="path4268"
         style="fill:#ab6bd5;fill-opacity:1;fill-rule:nonzero;stroke:none;stroke-width:0.1"
         d="m 1121.71,1260.68 c -0.03,0.06 -0.06,0.1 -0.09,0.16 0.03,-0.06 0.06,-0.11 0.09,-0.16 m -0.11,0.19 c -0.05,0.1 -0.1,0.19 -0.15,0.29 0.05,-0.1 0.1,-0.19 0.15,-0.29 m -0.19,0.38 c -0.02,0.03 -0.05,0.08 -0.07,0.12 0.02,-0.04 0.04,-0.08 0.07,-0.12 m -0.13,0.23 c -0.02,0.04 -0.04,0.07 -0.06,0.11 0.03,-0.04 0.04,-0.07 0.06,-0.11 m -0.13,0.25 c -0.02,0.05 -0.04,0.09 -0.07,0.13 0.02,-0.04 0.05,-0.09 0.07,-0.13 m -0.15,0.3 c -0.02,0.02 -0.04,0.06 -0.05,0.09 0.02,-0.04 0.03,-0.06 0.05,-0.09 m -0.13,0.24 c -0.02,0.03 -0.03,0.05 -0.04,0.07 0.01,-0.02 0.03,-0.04 0.04,-0.07 m -0.28,0.55 c -0.01,0.01 -0.02,0.02 -0.02,0.03 0,-0.01 0.01,-0.02 0.02,-0.03 m -0.14,0.26 c 0,0 0,0 -0.01,0.01 l 0.01,-0.01 m -18.03,53.84 c -0.01,0.01 -0.01,0.02 -0.01,0.04 0,-0.02 0,-0.03 0.01,-0.04 m -0.04,0.23 c -0.01,0.02 -0.01,0.04 -0.01,0.06 0,-0.02 0,-0.04 0.01,-0.06 m -0.05,0.28 c -0.01,0.04 -0.01,0.07 -0.02,0.11 0.01,-0.04 0.01,-0.07 0.02,-0.11 m -0.04,0.21 c 0,0.05 -0.01,0.09 -0.02,0.14 0.01,-0.05 0.02,-0.09 0.02,-0.14 m -0.03,0.2 c -9.19,54.6 6.27,106.48 21.91,141.88 0,-0.01 0,-0.01 0,-0.01 -15.63,-35.43 -31.1,-87.28 -21.91,-141.87" />
      <path
         id="path4270"
         style="fill:#c387c4;fill-opacity:1;fill-rule:nonzero;stroke:none;stroke-width:0.1"
         d="m 1284.31,1168.99 c -32.32,0 -63.02,7.43 -88.19,19.05 -0.01,0 -0.03,0.01 -0.04,0.01 v 0 c -7.98,3.69 -15.4,7.79 -22.14,12.22 -9.32,6.11 -17.33,12.83 -23.72,19.88 -0.25,0.27 -0.49,0.54 -0.73,0.81 -1.23,1.4 -2.44,2.8 -3.62,4.2 -0.02,0.02 -0.02,0.02 -0.03,0.03 -0.06,0.07 -0.11,0.14 -0.18,0.21 0,0.01 -0.02,0.03 -0.02,0.03 -0.06,0.08 -0.13,0.16 -0.19,0.23 -0.02,0.02 -0.04,0.04 -0.05,0.06 -0.04,0.05 -0.09,0.11 -0.13,0.16 -0.03,0.03 -0.06,0.06 -0.09,0.1 -0.03,0.03 -0.06,0.07 -0.09,0.1 -0.13,0.16 -0.26,0.32 -0.39,0.48 -0.01,0.01 -0.02,0.02 -0.03,0.03 -0.01,0.02 -0.03,0.04 -0.05,0.07 -0.03,0.03 -0.06,0.07 -0.09,0.11 -0.01,0 0,0 -0.01,0 -7.82,9.48 -14.44,19.09 -19.99,28.8 -0.96,1.68 -1.9,3.38 -2.8,5.06 0,0.02 -0.01,0.03 -0.02,0.05 -0.03,0.05 -0.06,0.1 -0.09,0.16 0,0.01 -0.01,0.02 -0.02,0.03 -0.05,0.1 -0.1,0.19 -0.15,0.29 -0.01,0.03 -0.03,0.06 -0.04,0.09 -0.03,0.04 -0.05,0.08 -0.07,0.12 -0.02,0.04 -0.04,0.07 -0.06,0.11 -0.02,0.04 -0.03,0.07 -0.06,0.11 -0.02,0.05 -0.05,0.1 -0.07,0.14 -0.02,0.04 -0.05,0.09 -0.07,0.13 -0.03,0.06 -0.06,0.12 -0.08,0.17 -0.02,0.03 -0.03,0.05 -0.05,0.09 -0.03,0.05 -0.05,0.1 -0.08,0.15 -0.01,0.03 -0.03,0.05 -0.04,0.07 -0.08,0.16 -0.16,0.32 -0.24,0.48 -0.01,0.01 -0.02,0.02 -0.02,0.03 -0.04,0.07 -0.08,0.15 -0.12,0.23 l -0.01,0.01 c -9.21,17.91 -14.93,36 -18.02,53.83 -0.01,0.01 -0.01,0.02 -0.01,0.04 -0.01,0.06 -0.02,0.13 -0.03,0.19 -0.01,0.02 -0.01,0.04 -0.01,0.06 -0.02,0.07 -0.03,0.14 -0.04,0.22 -0.01,0.04 -0.01,0.07 -0.02,0.11 -0.01,0.03 -0.01,0.07 -0.02,0.1 0,0.05 -0.01,0.09 -0.02,0.14 0,0.02 -0.01,0.04 -0.01,0.06 -9.19,54.59 6.28,106.44 21.91,141.87 0,-0.02 0,-0.04 0,-0.06 -14.6,-33.08 -29.04,-80.49 -23.4,-131.07 1.56,14.78 4.46,28.9 8.09,42.05 3.29,11.87 8.76,22.54 15.86,31.68 5.01,-33.3 19.06,-67.72 47.74,-100.11 25.35,-28.64 77.55,-52 134.83,-52 29.3,0.01 59.93,6.12 88.97,20.77 18.7,9.44 33.41,21.95 44.57,36.45 1.36,-5.67 2.45,-11.43 3.25,-17.23 -5.84,-40.83 -27.89,-78.8 -70.82,-100.46 -29.03,-14.63 -59.65,-20.74 -88.95,-20.74" />
      <path
         id="path4272"
         style="fill:#c3a1ce;fill-opacity:1;fill-rule:nonzero;stroke:none;stroke-width:0.1"
         d="m 1444.08,1290.19 c -0.8,5.8 -1.89,11.56 -3.25,17.23 1.7,2.21 3.31,4.45 4.84,6.75 0.06,-8.04 -0.46,-16.07 -1.59,-23.98 m -343.31,38.39 c -5.64,50.58 8.8,97.99 23.4,131.07 -2.22,-18.28 -2.42,-37.61 0.55,-57.34 -7.1,-9.14 -12.57,-19.81 -15.86,-31.68 -3.63,-13.15 -6.53,-27.27 -8.09,-42.05" />
      <path
         id="path4274"
         style="fill:#390075;fill-opacity:1;fill-rule:nonzero;stroke:none;stroke-width:0.1"
         d="m 1156.04,1484.72 c -22.16,-37 -80.29,-154.62 6.24,-252.42 32.46,-36.69 123.54,-67.52 203.3,-27.31 59.3,29.9 69.71,91.99 59.69,140.13 -9.51,45.68 -42.95,96.16 -93.91,99.05 -78.6,4.45 -146.98,29.01 -175.32,40.55 z m 128.66,-332.88 c -63.67,0 -120.83,27.08 -148.02,57.82 -120.05,135.68 -2.31,304.7 -1.11,306.39 l 8.27,11.63 12.91,-6.06 c 0.81,-0.38 82.11,-37.99 176.54,-43.33 60.02,-3.4 110.43,-54.11 125.44,-126.21 15.84,-76.08 -14.68,-145.8 -77.76,-177.61 -31.79,-16.03 -64.83,-22.63 -96.27,-22.63" />
      <g
         transform="scale(0.150346)"
         id="g4276">
        <path
           id="path4278"
           style="fill:#390075;fill-opacity:1;fill-rule:nonzero;stroke:none"
           d="m 10576.5,16072.7 c -956.03,0 -1733.9,-777.9 -1733.9,-1733.9 0,-956 777.87,-1733.8 1733.9,-1733.8 956,0 1733.8,777.8 1733.8,1733.8 0,956 -777.8,1733.9 -1733.8,1733.9 z m 0,-3695.1 c -1081.4,0 -1961.17,879.8 -1961.17,1961.2 0,1081.4 879.77,1961.2 1961.17,1961.2 1081.4,0 1961.1,-879.8 1961.1,-1961.2 0,-1081.4 -879.7,-1961.2 -1961.1,-1961.2" />
      </g>
      <g
         transform="scale(0.1613)"
         id="g4280">
        <path
           id="path4282"
           style="fill:#390075;fill-opacity:1;fill-rule:nonzero;stroke:none"
           d="m 14472,14981.2 c -891.1,0 -1616.1,-725 -1616.1,-1616.2 0,-891 725,-1616 1616.1,-1616 891.2,0 1616.2,725 1616.2,1616 0,891.2 -725,1616.2 -1616.2,1616.2 z m 0,-3444.1 c -1007.9,0 -1827.9,820 -1827.9,1827.9 0,1008 820,1828.1 1827.9,1828.1 1008,0 1828,-820.1 1828,-1828.1 0,-1007.9 -820,-1827.9 -1828,-1827.9" />
      </g>
      <g
         transform="scale(0.146653)"
         id="g4284">
        <path
           id="path4286"
           style="fill:#390075;fill-opacity:1;fill-rule:nonzero;stroke:none"
           d="m 14311,15587 c -36.1,0 -71.6,16.6 -94.5,48.1 -196,270.4 -512.3,431.8 -845.9,431.8 -332.6,0 -637.5,-152.8 -836.7,-419.2 -38.5,-51.5 -111.5,-62 -163.1,-23.6 -51.5,38.5 -62,111.6 -23.5,163.1 243.5,325.9 616.5,512.8 1023.3,512.8 408,0 794.8,-197.4 1034.6,-528.2 37.8,-52 26.2,-124.9 -25.9,-162.7 -20.7,-14.9 -44.6,-22.1 -68.3,-22.1" />
      </g>
      <g
         transform="scale(0.144387)"
         id="g4288">
        <path
           id="path4290"
           style="fill:#ffffff;fill-opacity:1;fill-rule:nonzero;stroke:none"
           d="m 10440.8,16300 c 0,0 -290.3,-13.4 -544.51,-230.4 -245.04,-209.1 -418.95,-614.3 -325.87,-907.6 93.16,-293.2 288.53,299.6 444.48,523.6 272.3,391 649.3,612 425.9,614.4" />
      </g>
      <g
         transform="scale(0.144387)"
         id="g4292">
        <path
           id="path4294"
           style="fill:#ffffff;fill-opacity:1;fill-rule:nonzero;stroke:none"
           d="m 15606.5,16300 c 0,0 -290.3,-13.4 -544.6,-230.4 -245,-209.1 -418.8,-614.3 -325.8,-907.6 93.1,-293.2 288.6,299.6 444.5,523.6 272.3,391 649.3,612 425.9,614.4" />
      </g>
      <g
         transform="scale(0.140593)"
         id="g4296">
        <path
           id="path4298"
           style="fill:#390075;fill-opacity:1;fill-rule:nonzero;stroke:none"
           d="m 12493.7,15199.4 c -43.5,-558.9 -406.8,-986.6 -811.5,-955.1 -404.7,31.5 -697.6,510.2 -654.1,1069.1 43.5,559 406.8,986.6 811.5,955.1 404.7,-31.4 697.5,-510.1 654.1,-1069.1" />
      </g>
      <g
         transform="scale(0.135855)"
         id="g4300">
        <path
           id="path4302"
           style="fill:#ffffff;fill-opacity:1;fill-rule:nonzero;stroke:none"
           d="m 12606.7,15920.6 c -15.1,-194.2 -129.9,-343.7 -256.4,-333.9 -126.6,9.8 -217,175.3 -201.8,369.6 15.1,194.2 129.9,343.7 256.5,333.8 126.5,-9.8 216.9,-175.2 201.7,-369.5" />
      </g>
      <g
         transform="scale(0.145541)"
         id="g4304">
        <path
           id="path4306"
           style="fill:#390075;fill-opacity:1;fill-rule:nonzero;stroke:none"
           d="m 14842.3,14682.7 c 41.9,-540 392.9,-953.1 783.9,-922.7 390.9,30.4 673.8,492.8 631.8,1032.7 -42,540 -393,953.1 -784,922.7 -390.9,-30.4 -673.8,-492.8 -631.7,-1032.7" />
      </g>
      <g
         transform="scale(0.13916)"
         id="g4308">
        <path
           id="path4310"
           style="fill:#ffffff;fill-opacity:1;fill-rule:nonzero;stroke:none"
           d="m 15837.9,15542.5 c 14.8,-189.6 126.9,-335.6 250.4,-325.9 123.5,9.5 211.7,171.1 197,360.7 -14.8,189.6 -126.9,335.6 -250.4,326 -123.6,-9.7 -211.8,-171.1 -197,-360.8" />
      </g>
    </g>
  </g>
</svg>
